<svg xmlns="http://www.w3.org/2000/svg" viewBox="0 0 172 162"><defs><style>.cls-1{fill:#e6e6e6;}.cls-2{fill:#2fc8f2;}.cls-3{fill:#00b5f4;}.cls-4{fill:#a09cad;}.cls-5{fill:#fff;}.cls-6{fill:#34234d;}.cls-7{fill:#ff5067;}.cls-8{fill:#ff6e86;}</style></defs><title>Asset 101</title><g id="Layer_2" data-name="Layer 2"><g id="Layer_1-2" data-name="Layer 1"><path class="cls-1" d="M150.72,58c-4.58-12.54.49-32.6-9.81-41.22-10-8.34-29-1.25-42.83-3.7S69.42-2.5,57.13,1.89c-12.69,4.54-15,25.1-23.7,35.28C25,47,4.72,52.53,2.24,66.17s14.59,25.76,19,37.91c4.58,12.54-.49,32.61,9.81,41.22,10,8.35,29,.2,42.76,2.65s28.73,16.6,41,12.21c12.69-4.53,15-25.09,23.7-35.27,8.45-9.87,28.71-15.37,31.19-29S155.17,70.13,150.72,58Z"/><rect class="cls-2" x="21" y="31" width="100" height="130" rx="6"/><rect class="cls-3" x="27" y="31" width="94" height="130" rx="6"/><path class="cls-4" d="M171,162H1a1,1,0,0,1,0-2H171a1,1,0,0,1,0,2Z"/><rect class="cls-5" x="31" y="38" width="80" height="112" rx="1"/><path class="cls-6" d="M115,162H94a1,1,0,0,1,0-2h21a5,5,0,0,0,5-5V79.07a1,1,0,0,1,2,0V155A7,7,0,0,1,115,162Z"/><path class="cls-6" d="M88,162H27a7,7,0,0,1-7-7V37a7,7,0,0,1,7-7H40a1,1,0,0,1,0,2H27a5,5,0,0,0-5,5V155a5,5,0,0,0,5,5H88a1,1,0,0,1,0,2Z"/><path class="cls-6" d="M121,74.07a1,1,0,0,1-1-1V37a5,5,0,0,0-5-5H46a1,1,0,0,1,0-2h69a7,7,0,0,1,7,7V73.07A1,1,0,0,1,121,74.07Z"/><path class="cls-6" d="M92,46H50a5,5,0,0,1-5-5V31a1,1,0,0,1,1-1H96a1,1,0,0,1,1,1V41A5,5,0,0,1,92,46ZM47,32v9a3,3,0,0,0,3,3H92a3,3,0,0,0,3-3V32Z"/><circle class="cls-7" cx="119" cy="107" r="28"/><path class="cls-8" d="M124,84a27.89,27.89,0,0,1,17.14,5.86,28,28,0,1,0-39.28,39.28A28,28,0,0,1,124,84Z"/><path class="cls-6" d="M119,136a29,29,0,1,1,29-29A29,29,0,0,1,119,136Zm0-56a27,27,0,1,0,27,27A27,27,0,0,0,119,80Z"/><path class="cls-2" d="M107.24,104.12l11,11a2,2,0,0,0,2.82,0l24.71-24.71a5.66,5.66,0,0,1,4.07-1.64c-.14-.17-.27-.36-.43-.52a5.3,5.3,0,0,0-7.48,0l-22.28,22.28L111.07,102a5.29,5.29,0,0,0-7.47,0,5.4,5.4,0,0,0-.43.52A5.69,5.69,0,0,1,107.24,104.12Z"/><path class="cls-3" d="M103.6,109.44,116,121.79a5.29,5.29,0,0,0,7.48,0l26-26a5.28,5.28,0,0,0,.43-7,5.66,5.66,0,0,0-4.07,1.64L121.1,115.16a2,2,0,0,1-2.82,0l-11-11a5.69,5.69,0,0,0-4.07-1.64A5.27,5.27,0,0,0,103.6,109.44Z"/><path class="cls-6" d="M119.69,124.34a6.25,6.25,0,0,1-4.45-1.84l-12.35-12.36a6.29,6.29,0,0,1,0-8.89,6.3,6.3,0,0,1,8.89,0l7.91,7.91,21.58-21.58a6.3,6.3,0,0,1,8.89,0h0a6.3,6.3,0,0,1,0,8.9l-26,26A6.21,6.21,0,0,1,119.69,124.34Zm-12.35-22.93a4.29,4.29,0,0,0-3,1.26,4.3,4.3,0,0,0,0,6.06l12.36,12.35a4.27,4.27,0,0,0,6.06,0l26-26a4.27,4.27,0,0,0,0-6.06h0a4.29,4.29,0,0,0-6.06,0L120.4,111.28a1,1,0,0,1-1.42,0l-8.61-8.61A4.28,4.28,0,0,0,107.34,101.41Z"/><path class="cls-6" d="M104,59H88.5a1,1,0,0,1,0-2H104a1,1,0,0,1,0,2Z"/><path class="cls-6" d="M82.5,59H62a1,1,0,0,1,0-2H82.5a1,1,0,0,1,0,2Z"/><path class="cls-6" d="M95,65H79.5a1,1,0,0,1,0-2H95a1,1,0,0,1,0,2Z"/><path class="cls-6" d="M73.5,65H62a1,1,0,0,1,0-2H73.5a1,1,0,0,1,0,2Z"/><circle class="cls-1" cx="46" cy="61" r="9"/><circle class="cls-1" cx="46" cy="85" r="9"/><circle class="cls-1" cx="46" cy="109" r="9"/><circle class="cls-1" cx="46" cy="133" r="9"/><path class="cls-6" d="M46,71A10,10,0,1,1,56,61,10,10,0,0,1,46,71Zm0-18a8,8,0,1,0,8,8A8,8,0,0,0,46,53Z"/><path class="cls-6" d="M96,83H82.5a1,1,0,0,1,0-2H96a1,1,0,0,1,0,2Z"/><path class="cls-6" d="M76.5,83H62a1,1,0,0,1,0-2H76.5a1,1,0,0,1,0,2Z"/><path class="cls-6" d="M91,89H77.5a1,1,0,0,1,0-2H91a1,1,0,0,1,0,2Z"/><path class="cls-6" d="M71.5,89H62a1,1,0,0,1,0-2h9.5a1,1,0,0,1,0,2Z"/><path class="cls-6" d="M46,95A10,10,0,1,1,56,85,10,10,0,0,1,46,95Zm0-18a8,8,0,1,0,8,8A8,8,0,0,0,46,77Z"/><path class="cls-6" d="M85.5,107H62a1,1,0,0,1,0-2H85.5a1,1,0,0,1,0,2Z"/><path class="cls-6" d="M86,113H77.5a1,1,0,0,1,0-2H86a1,1,0,0,1,0,2Z"/><path class="cls-6" d="M71.5,113H62a1,1,0,0,1,0-2h9.5a1,1,0,0,1,0,2Z"/><path class="cls-6" d="M46,119a10,10,0,1,1,10-10A10,10,0,0,1,46,119Zm0-18a8,8,0,1,0,8,8A8,8,0,0,0,46,101Z"/><path class="cls-6" d="M95,131H81.5a1,1,0,0,1,0-2H95a1,1,0,0,1,0,2Z"/><path class="cls-6" d="M75.5,131H62a1,1,0,0,1,0-2H75.5a1,1,0,0,1,0,2Z"/><path class="cls-6" d="M101,137H88.5a1,1,0,0,1,0-2H101a1,1,0,0,1,0,2Z"/><path class="cls-6" d="M82.5,137H62a1,1,0,0,1,0-2H82.5a1,1,0,0,1,0,2Z"/><path class="cls-6" d="M46,143a10,10,0,1,1,10-10A10,10,0,0,1,46,143Zm0-18a8,8,0,1,0,8,8A8,8,0,0,0,46,125Z"/><path class="cls-7" d="M47.13,66a2,2,0,0,1-1.41-.59l-4.34-4.34a2,2,0,1,1,2.83-2.82l2.92,2.92,7-7A2,2,0,0,1,57,57l-8.45,8.46A2,2,0,0,1,47.13,66Z"/><path class="cls-7" d="M47.13,90a2,2,0,0,1-1.41-.59l-4.34-4.34a2,2,0,1,1,2.83-2.82l2.92,2.92,7-7A2,2,0,1,1,57,81l-8.45,8.46A2,2,0,0,1,47.13,90Z"/><path class="cls-7" d="M47.13,138a2,2,0,0,1-1.41-.59l-4.34-4.34a2,2,0,1,1,2.83-2.82l2.92,2.92,7-7A2,2,0,1,1,57,129l-8.45,8.46A2,2,0,0,1,47.13,138Z"/><path class="cls-4" d="M144,140a1,1,0,0,1-.71-.29l-3-3a1,1,0,0,1,1.42-1.42l3,3a1,1,0,0,1,0,1.42A1,1,0,0,1,144,140Z"/><path class="cls-4" d="M151,147a1,1,0,0,1-.71-.29l-3-3a1,1,0,0,1,1.42-1.42l3,3a1,1,0,0,1,0,1.42A1,1,0,0,1,151,147Z"/><path class="cls-4" d="M141,147a1,1,0,0,1-.71-.29,1,1,0,0,1,0-1.42l3-3a1,1,0,0,1,1.42,1.42l-3,3A1,1,0,0,1,141,147Z"/><path class="cls-4" d="M148,140a1,1,0,0,1-.71-.29,1,1,0,0,1,0-1.42l3-3a1,1,0,0,1,1.42,1.42l-3,3A1,1,0,0,1,148,140Z"/><path class="cls-4" d="M131,27a1,1,0,0,1-.71-.29l-3-3a1,1,0,1,1,1.42-1.42l3,3a1,1,0,0,1,0,1.42A1,1,0,0,1,131,27Z"/><path class="cls-4" d="M138,34a1,1,0,0,1-.71-.29l-3-3a1,1,0,0,1,1.42-1.42l3,3a1,1,0,0,1,0,1.42A1,1,0,0,1,138,34Z"/><path class="cls-4" d="M128,34a1,1,0,0,1-.71-.29,1,1,0,0,1,0-1.42l3-3a1,1,0,1,1,1.42,1.42l-3,3A1,1,0,0,1,128,34Z"/><path class="cls-4" d="M135,27a1,1,0,0,1-.71-.29,1,1,0,0,1,0-1.42l3-3a1,1,0,1,1,1.42,1.42l-3,3A1,1,0,0,1,135,27Z"/><path class="cls-4" d="M164,59a1,1,0,0,1-.71-.29l-3-3a1,1,0,0,1,1.42-1.42l3,3a1,1,0,0,1,0,1.42A1,1,0,0,1,164,59Z"/><path class="cls-4" d="M171,66a1,1,0,0,1-.71-.29l-3-3a1,1,0,0,1,1.42-1.42l3,3a1,1,0,0,1,0,1.42A1,1,0,0,1,171,66Z"/><path class="cls-4" d="M161,66a1,1,0,0,1-.71-.29,1,1,0,0,1,0-1.42l3-3a1,1,0,1,1,1.42,1.42l-3,3A1,1,0,0,1,161,66Z"/><path class="cls-4" d="M168,59a1,1,0,0,1-.71-.29,1,1,0,0,1,0-1.42l3-3a1,1,0,1,1,1.42,1.42l-3,3A1,1,0,0,1,168,59Z"/><path class="cls-4" d="M67,5a1,1,0,0,1-.71-.29l-3-3A1,1,0,0,1,64.71.29l3,3a1,1,0,0,1,0,1.42A1,1,0,0,1,67,5Z"/><path class="cls-4" d="M74,12a1,1,0,0,1-.71-.29l-3-3a1,1,0,1,1,1.42-1.42l3,3a1,1,0,0,1,0,1.42A1,1,0,0,1,74,12Z"/><path class="cls-4" d="M64,12a1,1,0,0,1-.71-.29,1,1,0,0,1,0-1.42l3-3a1,1,0,1,1,1.42,1.42l-3,3A1,1,0,0,1,64,12Z"/><path class="cls-4" d="M71,5a1,1,0,0,1-.71-.29,1,1,0,0,1,0-1.42l3-3a1,1,0,0,1,1.42,1.42l-3,3A1,1,0,0,1,71,5Z"/><path class="cls-4" d="M8,46a1,1,0,0,1-.71-.29l-3-3a1,1,0,0,1,1.42-1.42l3,3a1,1,0,0,1,0,1.42A1,1,0,0,1,8,46Z"/><path class="cls-4" d="M15,53a1,1,0,0,1-.71-.29l-3-3a1,1,0,0,1,1.42-1.42l3,3a1,1,0,0,1,0,1.42A1,1,0,0,1,15,53Z"/><path class="cls-4" d="M5,53a1,1,0,0,1-.71-.29,1,1,0,0,1,0-1.42l3-3a1,1,0,0,1,1.42,1.42l-3,3A1,1,0,0,1,5,53Z"/><path class="cls-4" d="M12,46a1,1,0,0,1-.71-.29,1,1,0,0,1,0-1.42l3-3a1,1,0,0,1,1.42,1.42l-3,3A1,1,0,0,1,12,46Z"/><path class="cls-4" d="M4,116a1,1,0,0,1-.71-.29l-3-3a1,1,0,0,1,1.42-1.42l3,3a1,1,0,0,1,0,1.42A1,1,0,0,1,4,116Z"/><path class="cls-4" d="M11,123a1,1,0,0,1-.71-.29l-3-3a1,1,0,1,1,1.42-1.42l3,3a1,1,0,0,1,0,1.42A1,1,0,0,1,11,123Z"/><path class="cls-4" d="M1,123a1,1,0,0,1-.71-.29,1,1,0,0,1,0-1.42l3-3a1,1,0,0,1,1.42,1.42l-3,3A1,1,0,0,1,1,123Z"/><path class="cls-4" d="M8,116a1,1,0,0,1-.71-.29,1,1,0,0,1,0-1.42l3-3a1,1,0,1,1,1.42,1.42l-3,3A1,1,0,0,1,8,116Z"/></g></g></svg>