<svg xmlns="http://www.w3.org/2000/svg" viewBox="0 0 172 162"><defs><style>.cls-1{fill:#e6e6e6;}.cls-2{fill:#ff5067;}.cls-3{fill:#34234d;}.cls-4{fill:#ff6e86;}.cls-5{fill:#fff;}.cls-6{fill:#00b5f4;}.cls-7{fill:#a09cad;}</style></defs><title>Asset 41</title><g id="Layer_2" data-name="Layer 2"><g id="Layer_1-2" data-name="Layer 1"><path class="cls-1" d="M166.57,61.4C163.33,48.16,143.29,44,134.48,34.78,125.39,25.3,121.9,5.25,109.29,1.55,97.06-2,83.4,12.77,70.13,16S37.9,12.37,28.7,21.16c-9.5,9.07-3.35,28.48-7,41.07C18.06,74.43,2.2,87.36,5.43,100.6S28.71,118,37.52,127.22c9.09,9.48,12.58,29.53,25.19,33.23C74.94,164,88.6,149.23,101.88,146s32.22,3.63,41.42-5.16c9.5-9.07,3.35-28.48,7-41.07C153.94,87.57,169.8,74.64,166.57,61.4Z"/><polygon class="cls-2" points="95.05 98.82 115.44 118.36 120.34 113.9 120.34 86.11 95.05 98.82"/><path class="cls-3" d="M127.42,102.5l-1.19-1.86a2,2,0,0,0-2.71-.61l-4.09,2.6a2,2,0,0,0-.85,2.08L115.73,107a1,1,0,0,0-.23,1.32l.44.7a1,1,0,0,0,1.29.36l3.24-1.63a2,2,0,0,0,2.26.11l4.08-2.6A2,2,0,0,0,127.42,102.5Z"/><path class="cls-3" d="M127.42,91.91,126.23,90a2,2,0,0,0-2.71-.6L119.43,92a2,2,0,0,0-.85,2.08l-2.85,2.24a1,1,0,0,0-.23,1.32l.44.7a1,1,0,0,0,1.29.35l3.24-1.62a2,2,0,0,0,2.26.11l4.08-2.6A2,2,0,0,0,127.42,91.91Z"/><path class="cls-3" d="M115.44,119.36a1,1,0,0,1-.69-.28L94.36,99.54a1,1,0,0,1-.29-.87,1,1,0,0,1,.53-.75l25.29-12.7a1,1,0,0,1,.9,1.79l-24,12.07L115.46,117l3.88-3.53V93.76a1,1,0,0,1,2,0V113.9a1,1,0,0,1-.32.74l-4.9,4.46A1.05,1.05,0,0,1,115.44,119.36Z"/><polygon class="cls-4" points="35.18 115.73 21 96.06 31.48 93.86 50.41 100.97 35.18 115.73"/><path class="cls-3" d="M35.18,116.73H35.1a1,1,0,0,1-.73-.41L20.19,96.64a1,1,0,0,1,.6-1.56l10.48-2.2a1.06,1.06,0,0,1,.56,0L50.76,100a1,1,0,0,1,.63.73,1,1,0,0,1-.28.93L35.88,116.44A1,1,0,0,1,35.18,116.73Zm-12.47-20L35.32,114.2l13.26-12.85L31.4,94.9Z"/><path class="cls-4" d="M147.64,55.27c6.14,4.21,6.81,13.4-24.09,30.72s-88.15,42.45-91.8,36,29.87-33.9,60.77-51.22S140,50,147.64,55.27Z"/><path class="cls-2" d="M147.64,55.27c6,4.37,6.81,13.4-24.09,30.72s-88.11,42.43-91.8,36c2.94-4.23,29.08-21,59.49-39.14C121.05,65,137.37,56.26,147.64,55.27Z"/><path class="cls-5" d="M123.4,62.38a1,1,0,0,1-.35-1.93,53.87,53.87,0,0,0,13.68-8.17A1,1,0,0,1,138,53.82a55.22,55.22,0,0,1-14.26,8.5A1.13,1.13,0,0,1,123.4,62.38Z"/><path class="cls-3" d="M34.71,124c-3,0-3.52-1-3.83-1.54-1-1.82-.1-4.53,2.81-8.31a1,1,0,1,1,1.58,1.23c-3.17,4.11-2.91,5.63-2.65,6.09.79,1.4,8.92,1,34.43-9.49a558.05,558.05,0,0,0,56-26.85C145,72.83,149.81,65.31,150,61.17c.09-2-.89-3.68-2.91-5.07-6.71-4.6-20.89-1.53-42.14,9.15a1,1,0,0,1-.9-1.79c22.26-11.18,36.7-14.13,44.17-9,2.59,1.78,3.9,4.13,3.78,6.81-.3,6.76-9.71,15.37-27.95,25.6a560.26,560.26,0,0,1-56.23,27C47.91,122,38.9,124,34.71,124Z"/><path class="cls-3" d="M38.15,111.54a1,1,0,0,1-.69-.27,1,1,0,0,1,0-1.42c11.15-11.68,34.11-28.5,54.6-40,1.63-.92,3.22-1.79,4.77-2.63a1,1,0,1,1,1,1.76Q95.44,70.25,93,71.61C72.67,83,49.9,99.68,38.88,111.23A1,1,0,0,1,38.15,111.54Z"/><polygon class="cls-2" points="45 61.38 30.6 70.38 78.07 92.63 116.12 69.66 45 61.38"/><path class="cls-3" d="M78.07,93.63a.9.9,0,0,1-.42-.1L30.18,71.29a1,1,0,0,1-.58-.85,1,1,0,0,1,.47-.91l14.4-9a1,1,0,0,1,.64-.15l71.12,8.27a1,1,0,0,1,.88,1.11,1,1,0,0,1-1.11.88L45.23,62.42,32.69,70.25l45.8,21.47a1,1,0,0,1-.42,1.91Z"/><path class="cls-6" d="M91.66,28.66a4.52,4.52,0,0,1,7-5.57,8.14,8.14,0,0,1,16.22,1.06,8.29,8.29,0,0,1-.14,1.5,6.55,6.55,0,0,1,1.41-.15,6.87,6.87,0,1,1,0,13.73H92.67a5.33,5.33,0,0,1-1-10.57Z"/><path class="cls-6" d="M49.1,135.43a4.38,4.38,0,0,1-.59-2.22,4.51,4.51,0,0,1,7.55-3.34,8.15,8.15,0,0,1,16.23,1,8.29,8.29,0,0,1-.15,1.5,6.62,6.62,0,0,1,1.41-.15,6.87,6.87,0,1,1,0,13.73H50.11a5.33,5.33,0,0,1-1-10.57Z"/><path class="cls-3" d="M116.12,40.23H92.67A6.33,6.33,0,0,1,90.31,28a5.26,5.26,0,0,1-.24-1.58,5.52,5.52,0,0,1,5.52-5.52,5.42,5.42,0,0,1,2.38.54,9.14,9.14,0,0,1,17.88,2.69v.35a7.87,7.87,0,1,1,.27,15.73ZM95.59,22.92a3.51,3.51,0,0,0-3.06,5.25,1,1,0,0,1,0,.91,1,1,0,0,1-.72.56,4.33,4.33,0,0,0,.82,8.59h23.45a5.86,5.86,0,1,0-1.2-11.6,1,1,0,0,1-.91-.27,1,1,0,0,1-.28-.9,7.51,7.51,0,0,0,.12-1.31,7.15,7.15,0,0,0-14.23-.93A1,1,0,0,1,99,24a1,1,0,0,1-1-.2A3.51,3.51,0,0,0,95.59,22.92Z"/><path class="cls-3" d="M73.55,147H50.11a6.33,6.33,0,0,1-2.37-12.21,5.59,5.59,0,0,1-.23-1.58,5.51,5.51,0,0,1,7.89-5,9.15,9.15,0,0,1,17.89,2.69c0,.12,0,.24,0,.35A7.87,7.87,0,1,1,73.55,147ZM53,129.69A3.51,3.51,0,0,0,50,134.94a1,1,0,0,1,0,.91,1,1,0,0,1-.72.57,4.33,4.33,0,0,0,.83,8.58H73.55a5.86,5.86,0,1,0-1.2-11.6,1,1,0,0,1-.9-.26,1,1,0,0,1-.29-.9,6.78,6.78,0,0,0,.13-1.32A7.14,7.14,0,0,0,57.06,130a1,1,0,0,1-1.67.61A3.51,3.51,0,0,0,53,129.69Z"/><path class="cls-5" d="M68.28,130.38a3.84,3.84,0,0,1-.51-1.93,3.93,3.93,0,0,1,6.57-2.92,7.1,7.1,0,0,1,14.13.92,8.08,8.08,0,0,1-.12,1.31,5.43,5.43,0,0,1,1.22-.13,6,6,0,1,1,0,12H69.16a4.64,4.64,0,0,1-.88-9.2Z"/><path class="cls-3" d="M89.57,140.58H69.16a5.64,5.64,0,0,1-2.22-10.83,5.15,5.15,0,0,1-.17-1.3,4.94,4.94,0,0,1,4.93-4.94,4.83,4.83,0,0,1,2,.42,8.09,8.09,0,0,1,15.78,2.52v.18h.1a7,7,0,1,1,0,14ZM71.7,125.51a2.94,2.94,0,0,0-2.55,4.38,1,1,0,0,1,0,.91,1,1,0,0,1-.72.56,3.64,3.64,0,0,0,.69,7.22H89.57a5,5,0,1,0-1-9.84,1,1,0,0,1-1.19-1.17,6.25,6.25,0,0,0,.11-1.12,6.09,6.09,0,0,0-12.13-.79,1,1,0,0,1-1.67.61A2.93,2.93,0,0,0,71.7,125.51Z"/><path class="cls-5" d="M136.91,153.17a3.31,3.31,0,0,0,.44-1.65,3.34,3.34,0,0,0-5.6-2.47,6,6,0,0,0-12,.78,5.8,5.8,0,0,0,.11,1.11,5.19,5.19,0,0,0-1-.11,5.09,5.09,0,1,0,0,10.17h17.37a3.95,3.95,0,0,0,.75-7.83Z"/><path class="cls-7" d="M136.16,162H118.79a6.09,6.09,0,0,1-.06-12.17,7,7,0,0,1,13.67-2.35,4.3,4.3,0,0,1,1.6-.31,4.36,4.36,0,0,1,4.35,4.35,4.46,4.46,0,0,1-.12,1,4.95,4.95,0,0,1-2.07,9.45Zm-17.37-10.17a4.09,4.09,0,1,0,0,8.17h17.37a3,3,0,0,0,.56-5.85,1,1,0,0,1-.71-.56,1,1,0,0,1,0-.91,2.27,2.27,0,0,0,.31-1.16,2.34,2.34,0,0,0-3.93-1.73,1,1,0,0,1-1,.19,1,1,0,0,1-.64-.81,5,5,0,0,0-10,.66,4.94,4.94,0,0,0,.09.92,1,1,0,0,1-.29.9,1,1,0,0,1-.9.27A4.14,4.14,0,0,0,118.79,151.83Z"/><path class="cls-5" d="M27.77,132.67a2.64,2.64,0,0,0,.35-1.33,2.71,2.71,0,0,0-2.71-2.71,2.65,2.65,0,0,0-1.81.7,4.89,4.89,0,0,0-9.73.63,5.28,5.28,0,0,0,.09.9,4,4,0,0,0-.85-.09,4.12,4.12,0,0,0,0,8.23H27.17a3.19,3.19,0,0,0,.6-6.33Z"/><path class="cls-7" d="M27.17,140H13.11a5.11,5.11,0,0,1-.23-10.22,5.88,5.88,0,0,1,11.35-2,3.64,3.64,0,0,1,1.18-.19,3.71,3.71,0,0,1,3.71,3.71,3.51,3.51,0,0,1-.07.72A4.19,4.19,0,0,1,27.17,140Zm-14.06-8.23a3.12,3.12,0,0,0,0,6.23H27.17a2.19,2.19,0,0,0,.41-4.35,1,1,0,0,1-.68-1.48,1.61,1.61,0,0,0,.22-.83,1.71,1.71,0,0,0-2.85-1.27,1,1,0,0,1-1.67-.61,3.88,3.88,0,0,0-7.73.5,4.61,4.61,0,0,0,.07.72,1,1,0,0,1-.28.9,1,1,0,0,1-.91.26A2.79,2.79,0,0,0,13.11,131.77Z"/><path class="cls-5" d="M149.66,105.72a3.08,3.08,0,0,1,4.75-3.79,5.55,5.55,0,0,1,11.05.72,5.69,5.69,0,0,1-.1,1,4.34,4.34,0,0,1,1-.1,4.68,4.68,0,1,1,0,9.35h-16a3.63,3.63,0,0,1-.69-7.2Z"/><path class="cls-7" d="M166.32,113.92h-16a4.63,4.63,0,0,1-2-8.81,4.59,4.59,0,0,1-.1-.9,4.08,4.08,0,0,1,5.51-3.82,6.55,6.55,0,0,1,12.69,2.18,5.68,5.68,0,0,1-.14,11.35Zm-14-11.79a2.08,2.08,0,0,0-2.08,2.08,2.13,2.13,0,0,0,.27,1,1,1,0,0,1,0,.91,1,1,0,0,1-.72.57,2.63,2.63,0,0,0,.5,5.21h16a3.67,3.67,0,1,0-.75-7.27,1,1,0,0,1-.9-.26,1,1,0,0,1-.29-.9,5,5,0,0,0,.08-.84,4.55,4.55,0,0,0-9.06-.59,1,1,0,0,1-1.66.61A2.08,2.08,0,0,0,152.34,102.13Z"/><path class="cls-5" d="M149.31,9.62a3,3,0,0,0,.4-1.51A3.08,3.08,0,0,0,146.63,5a3,3,0,0,0-2.06.8,5.55,5.55,0,0,0-11,.72,5.69,5.69,0,0,0,.09,1,4.34,4.34,0,0,0-1-.1,4.68,4.68,0,0,0,0,9.35h16a3.63,3.63,0,0,0,.69-7.2Z"/><path class="cls-7" d="M148.62,17.82h-16a5.68,5.68,0,0,1-.13-11.35,6.55,6.55,0,0,1,12.69-2.18A4,4,0,0,1,146.63,4a4.08,4.08,0,0,1,4.08,4.08,3.94,3.94,0,0,1-.1.9,4.63,4.63,0,0,1-2,8.81Zm-16-9.35a3.68,3.68,0,0,0,0,7.35h16a2.63,2.63,0,0,0,.5-5.21,1,1,0,0,1-.72-.57,1,1,0,0,1,0-.91,2,2,0,0,0,.27-1A2.08,2.08,0,0,0,146.63,6a2.06,2.06,0,0,0-1.39.54A1,1,0,0,1,143.57,6a4.54,4.54,0,0,0-9,.59,4.11,4.11,0,0,0,.08.84,1,1,0,0,1-1.2,1.16A3.82,3.82,0,0,0,132.65,8.47Z"/><path class="cls-5" d="M4.7,42.79a3.83,3.83,0,0,1-.51-1.9A3.87,3.87,0,0,1,8.06,37a3.79,3.79,0,0,1,2.59,1,7,7,0,0,1,13.88.9,6.78,6.78,0,0,1-.13,1.28,6,6,0,0,1,1.21-.13,5.87,5.87,0,0,1,0,11.74h-20a4.56,4.56,0,0,1-.86-9Z"/><path class="cls-7" d="M25.61,52.82h-20a5.56,5.56,0,0,1-2.2-10.66,5,5,0,0,1-.17-1.27A4.88,4.88,0,0,1,8.06,36a4.79,4.79,0,0,1,1.94.41,8,8,0,0,1,15.53,2.5s0,.1,0,.15h.09a6.87,6.87,0,0,1,0,13.74ZM8.06,38a2.88,2.88,0,0,0-2.87,2.87,2.78,2.78,0,0,0,.38,1.4,1,1,0,0,1,0,.92,1,1,0,0,1-.72.56,3.56,3.56,0,0,0,.68,7H25.61a4.87,4.87,0,0,0,0-9.74,5,5,0,0,0-1,.11A1,1,0,0,1,23.42,40a6.12,6.12,0,0,0,.11-1.1,6,6,0,0,0-11.88-.77,1,1,0,0,1-1.67.61A2.86,2.86,0,0,0,8.06,38Z"/><path class="cls-5" d="M102.5,36.42a5.09,5.09,0,0,0,.67-2.54,5.16,5.16,0,0,0-8.63-3.82A9.3,9.3,0,0,0,76,31.27,9.71,9.71,0,0,0,76.18,33a7.71,7.71,0,0,0-1.61-.18,7.84,7.84,0,1,0,0,15.68h26.78a6.08,6.08,0,0,0,1.15-12.06Z"/><path class="cls-3" d="M101.35,49.48H74.57A8.84,8.84,0,1,1,75,31.82c0-.19,0-.37,0-.55a10.3,10.3,0,0,1,20.19-2.88,6.16,6.16,0,0,1,9,5.49,6.07,6.07,0,0,1-.3,1.89,7.09,7.09,0,0,1-2.52,13.71ZM74.57,33.8a6.84,6.84,0,1,0,0,13.68h26.78a5.09,5.09,0,0,0,1-10.08,1,1,0,0,1-.68-1.48,4.15,4.15,0,0,0-6.41-5.12,1,1,0,0,1-1.67-.61A8.3,8.3,0,0,0,77,31.27a8.15,8.15,0,0,0,.15,1.52,1,1,0,0,1-.29.9A1,1,0,0,1,76,34,6.74,6.74,0,0,0,74.57,33.8Z"/><path class="cls-7" d="M96.28,61.93l-2-2.77a3,3,0,0,0-4.18-.72L84.1,62.7a3,3,0,0,0-1.16,3.24l-4.55,3.94a1,1,0,0,0-.16,1.33L79.5,73a1,1,0,0,0,1.31.29l5.24-3a3,3,0,0,0,3.45,0l6-4.26A3,3,0,0,0,96.28,61.93Z"/><path class="cls-7" d="M71.71,59.31l-1.95-2.76a3,3,0,0,0-4.18-.73l-6,4.26a3,3,0,0,0-1.15,3.25l-4.55,3.93a1,1,0,0,0-.17,1.33l1.27,1.81a1,1,0,0,0,1.31.29l5.24-3a3,3,0,0,0,3.45,0l6-4.26A3,3,0,0,0,71.71,59.31Z"/><path class="cls-3" d="M55.75,71.83A2,2,0,0,1,54.12,71l-1.28-1.81a2,2,0,0,1,.33-2.67l4.12-3.56A4,4,0,0,1,59,59.26L65,55a4,4,0,0,1,5.57,1l1.94,2.76a4,4,0,0,1-1,5.58L65.5,68.57a4,4,0,0,1-4,.32l-4.75,2.68A2.05,2.05,0,0,1,55.75,71.83ZM67.3,56.27a2,2,0,0,0-1.14.37l-6,4.25a2,2,0,0,0-.77,2.17,1,1,0,0,1-.31,1L54.48,68l1.27,1.8L61,66.87a1,1,0,0,1,1.07,0,2,2,0,0,0,2.29,0l6.05-4.26a2,2,0,0,0,.49-2.79h0l-2-2.76a1.94,1.94,0,0,0-1.29-.82A2,2,0,0,0,67.3,56.27Z"/><path class="cls-3" d="M80.32,74.44a2,2,0,0,1-1.63-.85l-1.28-1.8a2,2,0,0,1,.33-2.67l4.12-3.56a4,4,0,0,1,1.66-3.68l6-4.26a4,4,0,0,1,5.58,1l1.94,2.76a4,4,0,0,1-1,5.58l-6.05,4.25a4,4,0,0,1-4,.33L81.3,74.18A2,2,0,0,1,80.32,74.44ZM91.87,58.89a1.94,1.94,0,0,0-1.14.37l-6,4.25a2,2,0,0,0-.77,2.17,1,1,0,0,1-.31,1l-4.55,3.94,1.27,1.8,5.24-3a1,1,0,0,1,1.07.05,2,2,0,0,0,2.29,0l6-4.26a2,2,0,0,0,.49-2.79h0l-1.95-2.76A2,2,0,0,0,91.87,58.89Z"/></g></g></svg>