<svg xmlns="http://www.w3.org/2000/svg" viewBox="0 0 172 162"><defs><style>.cls-1{fill:#e6e6e6;}.cls-2{fill:#ededed;}.cls-3{fill:#fff;}.cls-4{fill:#34234d;}.cls-5{fill:#ff6e86;}.cls-6{fill:#ff5067;}.cls-7{fill:#a09cad;}.cls-8{fill:#00b5f4;}</style></defs><title>Asset 91</title><g id="Layer_2" data-name="Layer 2"><g id="Layer_1-2" data-name="Layer 1"><path class="cls-1" d="M165.57,61.4c3.2,13.24-12.47,26.17-16,38.37-3.66,12.59,2.42,32-7,41.07-9.09,8.79-27.81,1.93-40.92,5.16S75.08,164,63,160.45c-12.46-3.7-15.9-23.75-24.88-33.23C29.42,118,9.62,113.84,6.43,100.6s12.47-26.17,16-38.37c3.66-12.59-2.42-32,7-41.07,9.09-8.79,27.81-1.93,40.92-5.16S96.92-2,109,1.55c12.46,3.7,15.9,23.75,24.88,33.23C142.58,44,162.38,48.16,165.57,61.4Z"/><path class="cls-2" d="M145,161H43L21,139V55H151V155A6,6,0,0,1,145,161Z"/><polygon class="cls-3" points="151 148 49 155 43 139 21 139 21 55 151 55 151 148"/><path class="cls-4" d="M145,162H120a1,1,0,0,1,0-2h25a5,5,0,0,0,5-5V113a1,1,0,0,1,2,0v42A7,7,0,0,1,145,162Z"/><path class="cls-4" d="M151,108a1,1,0,0,1-1-1V56H22V87a1,1,0,0,1-2,0V55a1,1,0,0,1,1-1H151a1,1,0,0,1,1,1v52A1,1,0,0,1,151,108Z"/><path class="cls-4" d="M114,162H43a1,1,0,0,1-.71-.29l-22-22A1,1,0,0,1,20,139V93a1,1,0,0,1,2,0v45.59L43.41,160H114a1,1,0,0,1,0,2Z"/><path class="cls-5" d="M27,39H145a6,6,0,0,1,6,6V55a0,0,0,0,1,0,0H21a0,0,0,0,1,0,0V45A6,6,0,0,1,27,39Z"/><polygon class="cls-6" points="151 55 21 55 21 48 151 43 151 55"/><path class="cls-4" d="M151,56H21a1,1,0,0,1-1-1V45a7,7,0,0,1,7-7H145a7,7,0,0,1,7,7V55A1,1,0,0,1,151,56ZM22,54H150V45a5,5,0,0,0-5-5H27a5,5,0,0,0-5,5Z"/><rect class="cls-7" x="81" y="103" width="10" height="10" rx="1.58"/><rect class="cls-7" x="64" y="103" width="10" height="10" rx="1.58"/><rect class="cls-7" x="47" y="103" width="10" height="10" rx="1.58"/><rect class="cls-7" x="30" y="103" width="10" height="10" rx="1.58"/><rect class="cls-7" x="132" y="103" width="10" height="10" rx="1.58"/><rect class="cls-7" x="115" y="103" width="10" height="10" rx="1.58"/><rect class="cls-7" x="98" y="103" width="10" height="10" rx="1.58"/><rect class="cls-7" x="81" y="120" width="10" height="10" rx="1.58"/><rect class="cls-7" x="64" y="120" width="10" height="10" rx="1.58"/><rect class="cls-7" x="47" y="120" width="10" height="10" rx="1.58"/><rect class="cls-7" x="30" y="120" width="10" height="10" rx="1.58"/><rect class="cls-7" x="132" y="120" width="10" height="10" rx="1.58"/><rect class="cls-7" x="115" y="120" width="10" height="10" rx="1.58"/><rect class="cls-7" x="98" y="120" width="10" height="10" rx="1.58"/><rect class="cls-7" x="81" y="137" width="10" height="10" rx="1.58"/><rect class="cls-7" x="64" y="137" width="10" height="10" rx="1.58"/><rect class="cls-7" x="47" y="137" width="10" height="10" rx="1.58"/><rect class="cls-7" x="30" y="137" width="10" height="10" rx="1.58"/><rect class="cls-7" x="98" y="137" width="10" height="10" rx="1.58"/><rect class="cls-7" x="81" y="86" width="10" height="10" rx="1.58"/><rect class="cls-7" x="64" y="86" width="10" height="10" rx="1.58"/><rect class="cls-7" x="47" y="86" width="10" height="10" rx="1.58"/><rect class="cls-7" x="30" y="86" width="10" height="10" rx="1.58"/><rect class="cls-7" x="132" y="86" width="10" height="10" rx="1.58"/><rect class="cls-7" x="115" y="86" width="10" height="10" rx="1.58"/><rect class="cls-7" x="98" y="86" width="10" height="10" rx="1.58"/><rect class="cls-7" x="81" y="86" width="10" height="10" rx="1.58"/><rect class="cls-7" x="64" y="86" width="10" height="10" rx="1.58"/><rect class="cls-7" x="47" y="86" width="10" height="10" rx="1.58"/><rect class="cls-7" x="30" y="86" width="10" height="10" rx="1.58"/><rect class="cls-7" x="132" y="86" width="10" height="10" rx="1.58"/><rect class="cls-7" x="115" y="86" width="10" height="10" rx="1.58"/><rect class="cls-7" x="98" y="86" width="10" height="10" rx="1.58"/><rect class="cls-7" x="81" y="69" width="10" height="10" rx="1.58"/><rect class="cls-7" x="64" y="69" width="10" height="10" rx="1.58"/><rect class="cls-7" x="132" y="69" width="10" height="10" rx="1.58"/><rect class="cls-7" x="115" y="69" width="10" height="10" rx="1.58"/><rect class="cls-7" x="98" y="69" width="10" height="10" rx="1.58"/><rect class="cls-7" x="81" y="69" width="10" height="10" rx="1.58"/><rect class="cls-7" x="64" y="69" width="10" height="10" rx="1.58"/><rect class="cls-7" x="132" y="69" width="10" height="10" rx="1.58"/><rect class="cls-7" x="115" y="69" width="10" height="10" rx="1.58"/><rect class="cls-7" x="98" y="69" width="10" height="10" rx="1.58"/><polygon class="cls-6" points="21 139 43 161 43 139 21 139"/><path class="cls-4" d="M43,162a1,1,0,0,1-.71-.29l-22-22a1,1,0,0,1-.21-1.09A1,1,0,0,1,21,138H43a1,1,0,0,1,1,1v22a1,1,0,0,1-.62.92A.84.84,0,0,1,43,162ZM23.41,140,42,158.59V140Z"/><path class="cls-4" d="M86,48a1,1,0,0,1,0-2,4,4,0,0,0,4-4V36a4,4,0,0,0-8,0v3a1,1,0,0,1-2,0V36a6,6,0,0,1,12,0v6A6,6,0,0,1,86,48Z"/><path class="cls-4" d="M62,48a1,1,0,0,1,0-2,4,4,0,0,0,4-4V36a4,4,0,0,0-8,0v3a1,1,0,0,1-2,0V36a6,6,0,0,1,12,0v6A6,6,0,0,1,62,48Z"/><path class="cls-4" d="M38,48a1,1,0,0,1,0-2,4,4,0,0,0,4-4V36a4,4,0,0,0-8,0v3a1,1,0,0,1-2,0V36a6,6,0,0,1,12,0v6A6,6,0,0,1,38,48Z"/><path class="cls-4" d="M134,48a1,1,0,0,1,0-2,4,4,0,0,0,4-4V36a4,4,0,0,0-8,0v3a1,1,0,0,1-2,0V36a6,6,0,0,1,12,0v6A6,6,0,0,1,134,48Z"/><path class="cls-4" d="M110,48a1,1,0,0,1,0-2,4,4,0,0,0,4-4V36a4,4,0,0,0-8,0v3a1,1,0,0,1-2,0V36a6,6,0,0,1,12,0v6A6,6,0,0,1,110,48Z"/><path class="cls-3" d="M96.84,116h12.31a2.85,2.85,0,0,1,2.85,2.85v12.31a2.85,2.85,0,0,1-2.85,2.85H96.84A2.84,2.84,0,0,1,94,131.16V118.84A2.84,2.84,0,0,1,96.84,116Z"/><path class="cls-4" d="M109.16,135H96.84A3.85,3.85,0,0,1,93,131.15v-12.3A3.85,3.85,0,0,1,96.84,115h12.32a3.85,3.85,0,0,1,3.84,3.85v12.3A3.85,3.85,0,0,1,109.16,135ZM96.84,117A1.85,1.85,0,0,0,95,118.85v12.3A1.85,1.85,0,0,0,96.84,133h12.32a1.85,1.85,0,0,0,1.84-1.85v-12.3a1.85,1.85,0,0,0-1.84-1.85Z"/><path class="cls-3" d="M113.85,82h12.31A2.85,2.85,0,0,1,129,84.85V97.15a2.85,2.85,0,0,1-2.85,2.85H113.84A2.84,2.84,0,0,1,111,97.16V84.85A2.85,2.85,0,0,1,113.85,82Z"/><path class="cls-4" d="M126.16,101H113.84A3.85,3.85,0,0,1,110,97.15V84.85A3.85,3.85,0,0,1,113.84,81h12.32A3.85,3.85,0,0,1,130,84.85v12.3A3.85,3.85,0,0,1,126.16,101ZM113.84,83A1.85,1.85,0,0,0,112,84.85v12.3A1.85,1.85,0,0,0,113.84,99h12.32A1.85,1.85,0,0,0,128,97.15V84.85A1.85,1.85,0,0,0,126.16,83Z"/><rect class="cls-3" x="43" y="99" width="18" height="18" rx="2.85"/><path class="cls-4" d="M58.16,118H45.84A3.85,3.85,0,0,1,42,114.15v-12.3A3.85,3.85,0,0,1,45.84,98H58.16A3.85,3.85,0,0,1,62,101.85v12.3A3.85,3.85,0,0,1,58.16,118ZM45.84,100A1.85,1.85,0,0,0,44,101.85v12.3A1.85,1.85,0,0,0,45.84,116H58.16A1.85,1.85,0,0,0,60,114.15v-12.3A1.85,1.85,0,0,0,58.16,100Z"/><path class="cls-3" d="M79.85,65H92.15A2.85,2.85,0,0,1,95,67.85V80.15A2.85,2.85,0,0,1,92.15,83H79.84A2.84,2.84,0,0,1,77,80.16V67.85A2.85,2.85,0,0,1,79.85,65Z"/><path class="cls-4" d="M92.16,84H79.84A3.85,3.85,0,0,1,76,80.15V67.85A3.85,3.85,0,0,1,79.84,64H92.16A3.85,3.85,0,0,1,96,67.85v12.3A3.85,3.85,0,0,1,92.16,84ZM79.84,66A1.85,1.85,0,0,0,78,67.85v12.3A1.85,1.85,0,0,0,79.84,82H92.16A1.85,1.85,0,0,0,94,80.15V67.85A1.85,1.85,0,0,0,92.16,66Z"/><path class="cls-8" d="M104.59,130.5a2.49,2.49,0,0,1-1.77-.73l-4.59-4.59a2.5,2.5,0,1,1,3.54-3.54l2.82,2.82,7.64-7.64a2.5,2.5,0,0,1,3.54,3.54l-9.41,9.41A2.49,2.49,0,0,1,104.59,130.5Z"/><path class="cls-8" d="M121.59,96.5a2.49,2.49,0,0,1-1.77-.73l-4.59-4.59a2.5,2.5,0,1,1,3.54-3.54l2.82,2.82,7.64-7.64a2.5,2.5,0,0,1,3.54,3.54l-9.41,9.41A2.49,2.49,0,0,1,121.59,96.5Z"/><path class="cls-8" d="M53.59,113.5a2.49,2.49,0,0,1-1.77-.73l-4.59-4.59a2.5,2.5,0,1,1,3.54-3.54l2.82,2.82,7.64-7.64a2.5,2.5,0,0,1,3.54,3.54l-9.41,9.41A2.49,2.49,0,0,1,53.59,113.5Z"/><path class="cls-8" d="M87.59,79.5a2.49,2.49,0,0,1-1.77-.73l-4.59-4.59a2.5,2.5,0,1,1,3.54-3.54l2.82,2.82,7.64-7.64a2.5,2.5,0,0,1,3.54,3.54l-9.41,9.41A2.49,2.49,0,0,1,87.59,79.5Z"/><path class="cls-7" d="M16,155a1,1,0,0,1-.71-.29l-3-3a1,1,0,0,1,1.42-1.42l3,3a1,1,0,0,1,0,1.42A1,1,0,0,1,16,155Z"/><path class="cls-7" d="M23,162a1,1,0,0,1-.71-.29l-3-3a1,1,0,0,1,1.42-1.42l3,3a1,1,0,0,1,0,1.42A1,1,0,0,1,23,162Z"/><path class="cls-7" d="M13,162a1,1,0,0,1-.71-.29,1,1,0,0,1,0-1.42l3-3a1,1,0,0,1,1.42,1.42l-3,3A1,1,0,0,1,13,162Z"/><path class="cls-7" d="M20,155a1,1,0,0,1-.71-.29,1,1,0,0,1,0-1.42l3-3a1,1,0,0,1,1.42,1.42l-3,3A1,1,0,0,1,20,155Z"/><path class="cls-7" d="M4,103a1,1,0,0,1-.71-.29l-3-3a1,1,0,0,1,1.42-1.42l3,3a1,1,0,0,1,0,1.42A1,1,0,0,1,4,103Z"/><path class="cls-7" d="M11,110a1,1,0,0,1-.71-.29l-3-3a1,1,0,1,1,1.42-1.42l3,3a1,1,0,0,1,0,1.42A1,1,0,0,1,11,110Z"/><path class="cls-7" d="M1,110a1,1,0,0,1-.71-.29,1,1,0,0,1,0-1.42l3-3a1,1,0,0,1,1.42,1.42l-3,3A1,1,0,0,1,1,110Z"/><path class="cls-7" d="M8,103a1,1,0,0,1-.71-.29,1,1,0,0,1,0-1.42l3-3a1,1,0,1,1,1.42,1.42l-3,3A1,1,0,0,1,8,103Z"/><path class="cls-7" d="M164,120a1,1,0,0,1-.71-.29l-3-3a1,1,0,0,1,1.42-1.42l3,3a1,1,0,0,1,0,1.42A1,1,0,0,1,164,120Z"/><path class="cls-7" d="M171,127a1,1,0,0,1-.71-.29l-3-3a1,1,0,0,1,1.42-1.42l3,3a1,1,0,0,1,0,1.42A1,1,0,0,1,171,127Z"/><path class="cls-7" d="M161,127a1,1,0,0,1-.71-.29,1,1,0,0,1,0-1.42l3-3a1,1,0,1,1,1.42,1.42l-3,3A1,1,0,0,1,161,127Z"/><path class="cls-7" d="M168,120a1,1,0,0,1-.71-.29,1,1,0,0,1,0-1.42l3-3a1,1,0,1,1,1.42,1.42l-3,3A1,1,0,0,1,168,120Z"/><path class="cls-7" d="M137,10a1,1,0,0,1-.71-.29l-3-3a1,1,0,0,1,1.42-1.42l3,3a1,1,0,0,1,0,1.42A1,1,0,0,1,137,10Z"/><path class="cls-7" d="M144,17a1,1,0,0,1-.71-.29l-3-3a1,1,0,0,1,1.42-1.42l3,3a1,1,0,0,1,0,1.42A1,1,0,0,1,144,17Z"/><path class="cls-7" d="M134,17a1,1,0,0,1-.71-.29,1,1,0,0,1,0-1.42l3-3a1,1,0,1,1,1.42,1.42l-3,3A1,1,0,0,1,134,17Z"/><path class="cls-7" d="M141,10a1,1,0,0,1-.71-.29,1,1,0,0,1,0-1.42l3-3a1,1,0,1,1,1.42,1.42l-3,3A1,1,0,0,1,141,10Z"/><path class="cls-7" d="M101,17a1,1,0,0,1-.71-.29l-3-3a1,1,0,0,1,1.42-1.42l3,3a1,1,0,0,1,0,1.42A1,1,0,0,1,101,17Z"/><path class="cls-7" d="M108,24a1,1,0,0,1-.71-.29l-3-3a1,1,0,0,1,1.42-1.42l3,3a1,1,0,0,1,0,1.42A1,1,0,0,1,108,24Z"/><path class="cls-7" d="M98,24a1,1,0,0,1-.71-.29,1,1,0,0,1,0-1.42l3-3a1,1,0,0,1,1.42,1.42l-3,3A1,1,0,0,1,98,24Z"/><path class="cls-7" d="M105,17a1,1,0,0,1-.71-.29,1,1,0,0,1,0-1.42l3-3a1,1,0,0,1,1.42,1.42l-3,3A1,1,0,0,1,105,17Z"/><path class="cls-7" d="M60,5a1,1,0,0,1-.71-.29l-3-3A1,1,0,0,1,57.71.29l3,3a1,1,0,0,1,0,1.42A1,1,0,0,1,60,5Z"/><path class="cls-7" d="M67,12a1,1,0,0,1-.71-.29l-3-3a1,1,0,0,1,1.42-1.42l3,3a1,1,0,0,1,0,1.42A1,1,0,0,1,67,12Z"/><path class="cls-7" d="M57,12a1,1,0,0,1-.71-.29,1,1,0,0,1,0-1.42l3-3a1,1,0,1,1,1.42,1.42l-3,3A1,1,0,0,1,57,12Z"/><path class="cls-7" d="M64,5a1,1,0,0,1-.71-.29,1,1,0,0,1,0-1.42l3-3a1,1,0,0,1,1.42,1.42l-3,3A1,1,0,0,1,64,5Z"/></g></g></svg>