<svg xmlns="http://www.w3.org/2000/svg" viewBox="0 0 172 162"><defs><style>.cls-1{fill:#e6e6e6;}.cls-2{fill:#a09cad;}.cls-3{fill:#b8b5c6;}.cls-4{fill:#34234d;}.cls-5{fill:#2fc8f2;}.cls-6{fill:#00b5f4;}.cls-7{fill:#ff6e86;}.cls-8{fill:#ff5067;}.cls-9{fill:#fff;}</style></defs><title>Asset 81</title><g id="Layer_2" data-name="Layer 2"><g id="Layer_1-2" data-name="Layer 1"><path class="cls-1" d="M150.9,56.67c-4.86-12.53-.11-32.8-10.66-41.28C130,7.18,111,15.71,97,13.49S67.75-2.7,55.42,1.94C42.7,6.72,40.75,27.43,32.14,37.83,23.8,47.9,3.45,53.79,1.2,67.55s15.19,25.64,19.9,37.79c4.86,12.52.11,32.79,10.66,41.27C42,154.82,61,146.29,75,148.51s29.29,16.19,41.62,11.55c12.72-4.78,14.67-25.49,23.28-35.89,8.34-10.07,28.69-16,30.94-29.72S155.61,68.81,150.9,56.67Z"/><path class="cls-2" d="M151,126a8,8,0,0,1-8,8H133l4,12-22-12H75a8,8,0,0,1-8-8V94a8,8,0,0,1,8-8h68a8,8,0,0,1,8,8Z"/><path class="cls-3" d="M151,126a8,8,0,0,1-8,8H133l4,12-22-12H75a8,8,0,0,1-8-8V94a8,8,0,0,1,8-8h68a8,8,0,0,1,8,8Z"/><path class="cls-2" d="M151,126a8,8,0,0,1-8,8H133l4,12-22-12H85a8,8,0,0,1-8-8V94a8,8,0,0,1,8-8h58a8,8,0,0,1,8,8Z"/><path class="cls-4" d="M137,147a1,1,0,0,1-.48-.12L114.75,135H75a9,9,0,0,1-9-9V94a9,9,0,0,1,9-9h30a1,1,0,0,1,0,2H75a7,7,0,0,0-7,7v32a7,7,0,0,0,7,7h40a1,1,0,0,1,.48.12l19.77,10.79-3.2-9.59a1,1,0,0,1,.14-.9A1,1,0,0,1,133,133h10a7,7,0,0,0,7-7V94a7,7,0,0,0-7-7H111a1,1,0,0,1,0-2h32a9,9,0,0,1,9,9v32a9,9,0,0,1-9,9h-8.61L138,145.68A1,1,0,0,1,137,147Z"/><path class="cls-5" d="M21,91a8,8,0,0,0,8,8H39l-4,12L57,99H97a8,8,0,0,0,8-8V59a8,8,0,0,0-8-8H29a8,8,0,0,0-8,8Z"/><path class="cls-6" d="M96,51H39a8,8,0,0,0-8,8V91a8,8,0,0,0,8,8l-4,12L57,99H96a8,8,0,0,0,8-8V59A8,8,0,0,0,96,51Z"/><path class="cls-4" d="M35,112a1,1,0,0,1-1-1.32L37.61,100H29a9,9,0,0,1-9-9V59a9,9,0,0,1,9-9H44.5a1,1,0,0,1,0,2H29a7,7,0,0,0-7,7V91a7,7,0,0,0,7,7H39a1,1,0,0,1,.81.42,1,1,0,0,1,.14.9l-3.2,9.59L56.52,98.12A1,1,0,0,1,57,98H97a7,7,0,0,0,7-7V59a7,7,0,0,0-7-7H50.5a1,1,0,0,1,0-2H97a9,9,0,0,1,9,9V91a9,9,0,0,1-9,9H57.25L35.48,111.88A1,1,0,0,1,35,112Z"/><path class="cls-7" d="M151,56a8,8,0,0,1-8,8H133l4,12L115,64H75a8,8,0,0,1-8-8V24a8,8,0,0,1,8-8h68a8,8,0,0,1,8,8Z"/><path class="cls-8" d="M151,56a8,8,0,0,1-8,8H133l4,12L115,64H85a8,8,0,0,1-8-8V24a8,8,0,0,1,8-8h58a8,8,0,0,1,8,8Z"/><path class="cls-4" d="M137,77a1,1,0,0,1-.48-.12L114.75,65H75a9,9,0,0,1-9-9V24a9,9,0,0,1,9-9h68a9,9,0,0,1,9,9V44.67a1,1,0,1,1-2,0V24a7,7,0,0,0-7-7H75a7,7,0,0,0-7,7V56a7,7,0,0,0,7,7h40a1,1,0,0,1,.48.12l19.77,10.79-3.2-9.59a1,1,0,0,1,.14-.9A1,1,0,0,1,133,63h10a7,7,0,0,0,7-7V50.67a1,1,0,0,1,2,0V56a9,9,0,0,1-9,9h-8.61L138,75.68A1,1,0,0,1,137,77Z"/><path class="cls-2" d="M164,72a1,1,0,0,1-.71-.3l-3-3a1,1,0,0,1,0-1.41,1,1,0,0,1,1.42,0l3,3A1,1,0,0,1,164,72Z"/><path class="cls-2" d="M171,79a1,1,0,0,1-.71-.3l-3-3a1,1,0,0,1,0-1.41,1,1,0,0,1,1.42,0l3,3A1,1,0,0,1,171,79Z"/><path class="cls-2" d="M161,79a1,1,0,0,1-.71-1.71l3-3a1,1,0,0,1,1.42,0,1,1,0,0,1,0,1.41l-3,3A1,1,0,0,1,161,79Z"/><path class="cls-2" d="M168,72a1,1,0,0,1-.71-1.71l3-3a1,1,0,0,1,1.42,0,1,1,0,0,1,0,1.41l-3,3A1,1,0,0,1,168,72Z"/><path class="cls-2" d="M33,129a1,1,0,0,1-.71-.29l-3-3a1,1,0,0,1,1.42-1.42l3,3a1,1,0,0,1,0,1.42A1,1,0,0,1,33,129Z"/><path class="cls-2" d="M40,136a1,1,0,0,1-.71-.29l-3-3a1,1,0,0,1,1.42-1.42l3,3a1,1,0,0,1,0,1.42A1,1,0,0,1,40,136Z"/><path class="cls-2" d="M30,136a1,1,0,0,1-.71-.29,1,1,0,0,1,0-1.42l3-3a1,1,0,0,1,1.42,1.42l-3,3A1,1,0,0,1,30,136Z"/><path class="cls-2" d="M37,129a1,1,0,0,1-.71-.29,1,1,0,0,1,0-1.42l3-3a1,1,0,1,1,1.42,1.42l-3,3A1,1,0,0,1,37,129Z"/><path class="cls-2" d="M112.5,5a1,1,0,0,1-.71-.29l-3-3A1,1,0,1,1,110.21.29l3,3a1,1,0,0,1,0,1.42A1,1,0,0,1,112.5,5Z"/><path class="cls-2" d="M119.5,12a1,1,0,0,1-.71-.29l-3-3a1,1,0,1,1,1.42-1.42l3,3a1,1,0,0,1,0,1.42A1,1,0,0,1,119.5,12Z"/><path class="cls-2" d="M109.5,12a1,1,0,0,1-.71-.29,1,1,0,0,1,0-1.42l3-3a1,1,0,1,1,1.42,1.42l-3,3A1,1,0,0,1,109.5,12Z"/><path class="cls-2" d="M116.5,5a1,1,0,0,1-.71-.29,1,1,0,0,1,0-1.42l3-3a1,1,0,0,1,1.42,1.42l-3,3A1,1,0,0,1,116.5,5Z"/><path class="cls-2" d="M4,90.53a1,1,0,0,1-.71-.29l-3-3a1,1,0,0,1,1.42-1.41l3,3a1,1,0,0,1,0,1.41A1,1,0,0,1,4,90.53Z"/><path class="cls-2" d="M11,97.53a1,1,0,0,1-.71-.29l-3-3a1,1,0,1,1,1.42-1.41l3,3a1,1,0,0,1,0,1.41A1,1,0,0,1,11,97.53Z"/><path class="cls-2" d="M1,97.53a1,1,0,0,1-.71-.29,1,1,0,0,1,0-1.41l3-3a1,1,0,0,1,1.42,1.41l-3,3A1,1,0,0,1,1,97.53Z"/><path class="cls-2" d="M8,90.53a1,1,0,0,1-.71-.29,1,1,0,0,1,0-1.41l3-3a1,1,0,0,1,1.42,1.41l-3,3A1,1,0,0,1,8,90.53Z"/><path class="cls-2" d="M48.15,32.37a1,1,0,0,1-.71-.29l-3-3a1,1,0,0,1,0-1.42,1,1,0,0,1,1.41,0l3,3a1,1,0,0,1-.7,1.71Z"/><path class="cls-2" d="M55.15,39.37a1,1,0,0,1-.71-.29l-3-3a1,1,0,0,1,0-1.42,1,1,0,0,1,1.41,0l3,3a1,1,0,0,1-.7,1.71Z"/><path class="cls-2" d="M45.15,39.37a1,1,0,0,1-.71-1.71l3-3a1,1,0,0,1,1.41,0,1,1,0,0,1,0,1.42l-3,3A1,1,0,0,1,45.15,39.37Z"/><path class="cls-2" d="M52.15,32.37a1,1,0,0,1-.71-1.71l3-3a1,1,0,0,1,1.41,0,1,1,0,0,1,0,1.42l-3,3A1,1,0,0,1,52.15,32.37Z"/><path class="cls-2" d="M93,155a1,1,0,0,1-.71-.29l-3-3a1,1,0,0,1,1.42-1.42l3,3a1,1,0,0,1,0,1.42A1,1,0,0,1,93,155Z"/><path class="cls-2" d="M100,162a1,1,0,0,1-.71-.29l-3-3a1,1,0,0,1,1.42-1.42l3,3a1,1,0,0,1,0,1.42A1,1,0,0,1,100,162Z"/><path class="cls-2" d="M90,162a1,1,0,0,1-.71-.29,1,1,0,0,1,0-1.42l3-3a1,1,0,0,1,1.42,1.42l-3,3A1,1,0,0,1,90,162Z"/><path class="cls-2" d="M97,155a1,1,0,0,1-.71-.29,1,1,0,0,1,0-1.42l3-3a1,1,0,0,1,1.42,1.42l-3,3A1,1,0,0,1,97,155Z"/><path class="cls-9" d="M127,36.83H100a1.5,1.5,0,0,1,0-3h27a1.5,1.5,0,0,1,0,3Z"/><path class="cls-9" d="M92,36.83H77a1.5,1.5,0,0,1,0-3H92a1.5,1.5,0,0,1,0,3Z"/><path class="cls-9" d="M141,46.17H113a1.5,1.5,0,0,1,0-3h28a1.5,1.5,0,0,1,0,3Z"/><path class="cls-9" d="M105,46.17H77a1.5,1.5,0,0,1,0-3h28a1.5,1.5,0,0,1,0,3Z"/><path class="cls-9" d="M118,55.5H77a1.5,1.5,0,0,1,0-3h41a1.5,1.5,0,0,1,0,3Z"/><path class="cls-9" d="M141,27.5H120a1.5,1.5,0,0,1,0-3h21a1.5,1.5,0,0,1,0,3Z"/><path class="cls-9" d="M112,27.5H77a1.5,1.5,0,0,1,0-3h35a1.5,1.5,0,0,1,0,3Z"/><path class="cls-9" d="M95,71.83H55a1.5,1.5,0,0,1,0-3H95a1.5,1.5,0,0,1,0,3Z"/><path class="cls-9" d="M46,71.83H31a1.5,1.5,0,0,1,0-3H46a1.5,1.5,0,0,1,0,3Z"/><path class="cls-9" d="M95,81.17H69a1.5,1.5,0,0,1,0-3H95a1.5,1.5,0,0,1,0,3Z"/><path class="cls-9" d="M60,81.17H31a1.5,1.5,0,0,1,0-3H60a1.5,1.5,0,1,1,0,3Z"/><path class="cls-9" d="M76,90.5H31a1.5,1.5,0,0,1,0-3H76a1.5,1.5,0,0,1,0,3Z"/><path class="cls-9" d="M60,62.5H31a1.5,1.5,0,0,1,0-3H60a1.5,1.5,0,0,1,0,3Z"/><path class="cls-9" d="M127,106.83H77a1.5,1.5,0,0,1,0-3h50a1.5,1.5,0,0,1,0,3Z"/><path class="cls-9" d="M141,116.17H106a1.5,1.5,0,0,1,0-3h35a1.5,1.5,0,0,1,0,3Z"/><path class="cls-9" d="M97,116.17H77a1.5,1.5,0,0,1,0-3H97a1.5,1.5,0,0,1,0,3Z"/><path class="cls-9" d="M118,125.5H77a1.5,1.5,0,0,1,0-3h41a1.5,1.5,0,0,1,0,3Z"/><path class="cls-9" d="M141,97.5H112a1.5,1.5,0,0,1,0-3h29a1.5,1.5,0,0,1,0,3Z"/></g></g></svg>