<svg xmlns="http://www.w3.org/2000/svg" viewBox="0 0 172 162"><defs><style>.cls-1{fill:#e6e6e6;}.cls-2{fill:#fff;}.cls-3{fill:#ededed;}.cls-4{fill:#ff5067;}.cls-5{fill:#ff6e86;}.cls-6{fill:#a09cad;}.cls-7{fill:#34234d;}.cls-8{fill:#00b5f4;}.cls-9{fill:#2fc8f2;}</style></defs><title>Asset 121</title><g id="Layer_2" data-name="Layer 2"><g id="Layer_1-2" data-name="Layer 1"><path class="cls-1" d="M166.57,61.4C163.33,48.16,143.29,44,134.48,34.78,125.39,25.3,121.9,5.25,109.29,1.55,97.06-2,83.4,12.77,70.13,16S37.9,12.37,28.7,21.16c-9.5,9.07-3.35,28.48-7,41.07C18.06,74.43,2.2,87.36,5.43,100.6S28.71,118,37.52,127.22c9.09,9.48,12.58,29.53,25.19,33.23C74.94,164,88.6,149.23,101.88,146s32.22,3.63,41.42-5.16c9.5-9.07,3.35-28.48,7-41.07C153.94,87.57,169.8,74.64,166.57,61.4Z"/><rect class="cls-2" x="21" y="71" width="130" height="90" rx="3"/><polygon class="cls-3" points="89.88 161 135 71 105.28 71 60.16 161 89.88 161"/><path class="cls-4" d="M82.77,127H119a1.77,1.77,0,0,1,1.52,2.68l-5.63,9.45a1.76,1.76,0,0,1-1.52.87H82.77A1.77,1.77,0,0,1,81,138.23v-9.46A1.77,1.77,0,0,1,82.77,127Z"/><path class="cls-5" d="M82.77,127h24.15l-6.51,13H82.77A1.77,1.77,0,0,1,81,138.23v-9.46A1.77,1.77,0,0,1,82.77,127Z"/><polygon class="cls-3" points="43.22 161 88.34 71 77.25 71 33 161 43.22 161"/><path class="cls-4" d="M21,152H39.68A1.32,1.32,0,0,1,41,153.32V161a0,0,0,0,1,0,0H24a3,3,0,0,1-3-3v-6A0,0,0,0,1,21,152Z"/><path class="cls-5" d="M33,161h8v-7.68A1.32,1.32,0,0,0,39.68,152H37.43Z"/><rect class="cls-6" x="57" y="119" width="76" height="4"/><rect class="cls-6" x="21" y="94" width="26" height="4"/><rect class="cls-6" x="21" y="144" width="130" height="4"/><rect class="cls-6" x="45" y="71" width="4" height="40.02"/><rect class="cls-6" x="73" y="71" width="4" height="90"/><polygon class="cls-6" points="111.33 161 106.67 161 151 87.11 151 94.89 111.33 161"/><rect class="cls-6" x="21" y="119" width="16" height="4"/><rect class="cls-6" x="45" y="131" width="4" height="30"/><path class="cls-6" d="M47,133a12,12,0,1,1,12-12A12,12,0,0,1,47,133Zm0-20a8,8,0,1,0,8,8A8,8,0,0,0,47,113Z"/><path class="cls-4" d="M121.32,153.11,116.59,161H148a3,3,0,0,0,3-3v-6H123.28A2.27,2.27,0,0,0,121.32,153.11Z"/><path class="cls-4" d="M69,71H53v34.09a1.64,1.64,0,0,0,.92,1.49,16.14,16.14,0,0,1,7.5,7.5,1.64,1.64,0,0,0,1.49.92h4.41A1.68,1.68,0,0,0,69,113.32Z"/><path class="cls-5" d="M69,87.79,58.25,109.65a16.23,16.23,0,0,1,3.17,4.43,1.64,1.64,0,0,0,1.49.92h3.37L69,109.57Z"/><path class="cls-4" d="M21,102H40a1,1,0,0,1,1,1v2.09a1.64,1.64,0,0,1-.91,1.49,16.16,16.16,0,0,0-7.51,7.5,1.64,1.64,0,0,1-1.49.92H21Z"/><path class="cls-7" d="M148,162H102a1,1,0,0,1,0-2h46a2,2,0,0,0,2-2V127a1,1,0,0,1,2,0v31A4,4,0,0,1,148,162Z"/><path class="cls-7" d="M96,162H24a4,4,0,0,1-4-4V89a1,1,0,0,1,2,0v69a2,2,0,0,0,2,2H96a1,1,0,0,1,0,2Z"/><path class="cls-7" d="M151,122a1,1,0,0,1-1-1V74a2,2,0,0,0-2-2H24a2,2,0,0,0-2,2v9a1,1,0,0,1-2,0V74a4,4,0,0,1,4-4H148a4,4,0,0,1,4,4v47A1,1,0,0,1,151,122Z"/><path class="cls-8" d="M126.36,41.92h0a37.28,37.28,0,0,0-52.72,0h0a37.28,37.28,0,0,0,0,52.72L100,121l26.36-26.36A37.28,37.28,0,0,0,126.36,41.92Z"/><path class="cls-9" d="M77.64,46.92h0a37.28,37.28,0,0,1,52.72,0h0c.24.24.47.49.7.73a37.27,37.27,0,0,0-4.7-5.73h0a37.28,37.28,0,0,0-52.72,0h0a37.28,37.28,0,0,0-.7,52A37.3,37.3,0,0,1,77.64,46.92Z"/><path class="cls-7" d="M100,122a1,1,0,0,1-.71-.29L72.93,95.35a38.28,38.28,0,1,1,54.14,0l-26.36,26.36A1,1,0,0,1,100,122Zm0-90A36.26,36.26,0,0,0,74.35,93.93L100,119.59l25.65-25.66a36.26,36.26,0,0,0,0-51.3h0A36.13,36.13,0,0,0,100,32Z"/><path class="cls-3" d="M112,52.29a20,20,0,0,1-28,28,20,20,0,1,0,28-28Z"/><path class="cls-2" d="M116,64.28a19.93,19.93,0,0,0-4-12,20,20,0,0,0-28,28,20,20,0,0,0,32-16Z"/><path class="cls-7" d="M100,89.28a21,21,0,1,1,21-21A21,21,0,0,1,100,89.28Zm0-40a19,19,0,1,0,19,19A19,19,0,0,0,100,49.28Z"/><circle class="cls-2" cx="163" cy="90" r="8"/><path class="cls-6" d="M163,99a1,1,0,0,1-1-1,7,7,0,0,0-7-7,1,1,0,0,1,0-2,7,7,0,0,0,7-7,1,1,0,0,1,2,0,7,7,0,0,0,7,7,1,1,0,0,1,0,2,7,7,0,0,0-7,7A1,1,0,0,1,163,99Zm-3.88-9A9.08,9.08,0,0,1,163,93.88,9.08,9.08,0,0,1,166.88,90,9.08,9.08,0,0,1,163,86.12,9.08,9.08,0,0,1,159.12,90Z"/><circle class="cls-2" cx="75" cy="11" r="10"/><path class="cls-6" d="M75,22a1,1,0,0,1-1-1,9,9,0,0,0-9-9,1,1,0,0,1,0-2,9,9,0,0,0,9-9,1,1,0,0,1,2,0,9,9,0,0,0,9,9,1,1,0,0,1,0,2,9,9,0,0,0-9,9A1,1,0,0,1,75,22ZM69.58,11A11.08,11.08,0,0,1,75,16.42,11.08,11.08,0,0,1,80.42,11,11.08,11.08,0,0,1,75,5.58,11.08,11.08,0,0,1,69.58,11Z"/><circle class="cls-2" cx="142" cy="27" r="9"/><path class="cls-6" d="M142,37a1,1,0,0,1-1-1,8,8,0,0,0-8-8,1,1,0,0,1,0-2,8,8,0,0,0,8-8,1,1,0,0,1,2,0,8,8,0,0,0,8,8,1,1,0,0,1,0,2,8,8,0,0,0-8,8A1,1,0,0,1,142,37Zm-4.64-10A10,10,0,0,1,142,31.64,10,10,0,0,1,146.64,27,10,10,0,0,1,142,22.36,10,10,0,0,1,137.36,27Z"/><circle class="cls-2" cx="40" cy="54" r="8"/><path class="cls-6" d="M40,63a1,1,0,0,1-1-1,7,7,0,0,0-7-7,1,1,0,0,1,0-2,7,7,0,0,0,7-7,1,1,0,0,1,2,0,7,7,0,0,0,7,7,1,1,0,0,1,0,2,7,7,0,0,0-7,7A1,1,0,0,1,40,63Zm-3.88-9A9.08,9.08,0,0,1,40,57.88,9.08,9.08,0,0,1,43.88,54,9.08,9.08,0,0,1,40,50.12,9.08,9.08,0,0,1,36.12,54Z"/><circle class="cls-2" cx="9" cy="129" r="8"/><path class="cls-6" d="M9,138a1,1,0,0,1-1-1,7,7,0,0,0-7-7,1,1,0,0,1,0-2,7,7,0,0,0,7-7,1,1,0,0,1,2,0,7,7,0,0,0,7,7,1,1,0,0,1,0,2,7,7,0,0,0-7,7A1,1,0,0,1,9,138Zm-3.88-9A9.08,9.08,0,0,1,9,132.88,9.08,9.08,0,0,1,12.88,129,9.08,9.08,0,0,1,9,125.12,9.08,9.08,0,0,1,5.12,129Z"/></g></g></svg>