<svg xmlns="http://www.w3.org/2000/svg" viewBox="0 0 172 162"><defs><style>.cls-1{fill:#e6e6e6;}.cls-2{fill:#a09cad;}.cls-3{fill:#b8b5c6;}.cls-4{fill:#34234d;}.cls-5{fill:#fff;}.cls-6{fill:#ededed;}.cls-7{fill:#ff6e86;}.cls-8{fill:#2fc8f2;}.cls-9{fill:#ff5067;}.cls-10{fill:#00b5f4;}</style></defs><title>Asset 51</title><g id="Layer_2" data-name="Layer 2"><g id="Layer_1-2" data-name="Layer 1"><path class="cls-1" d="M149.58,53.79c-5.34-12.48-1.42-33.19-12.26-41.35-10.5-7.92-29.07,1.47-43-.22S64.49-3,52.41,2.18C40,7.52,38.84,28.57,30.7,39.43,22.8,50,2.8,56.73,1.11,70.74S17.25,96.1,22.42,108.21c5.34,12.49,1.42,33.19,12.26,41.35,10.5,7.92,29.07-1.47,43.05.22s29.78,15.23,41.86,10c12.46-5.34,13.57-26.39,21.71-37.25,7.9-10.53,27.9-17.3,29.59-31.31S154.75,65.9,149.58,53.79Z"/><path class="cls-2" d="M86,17a8.5,8.5,0,1,1,8.5-8.5A8.51,8.51,0,0,1,86,17ZM86,2a6.5,6.5,0,1,0,6.5,6.5A6.51,6.51,0,0,0,86,2Z"/><circle class="cls-3" cx="86" cy="81" r="65"/><path class="cls-2" d="M129.39,32.61a65,65,0,0,1-91.78,91.78,65,65,0,1,0,91.78-91.78Z"/><path class="cls-4" d="M22.11,70l-.19,0a1,1,0,0,1-.8-1.16A66,66,0,0,1,119.46,24.1a1,1,0,1,1-1,1.72A64,64,0,0,0,23.09,69.18,1,1,0,0,1,22.11,70Z"/><path class="cls-4" d="M86,147A66.08,66.08,0,0,1,20,81c0-1.57.06-3.15.17-4.72a1,1,0,1,1,2,.14C22.05,77.94,22,79.48,22,81A64,64,0,1,0,124,29.51a1,1,0,1,1,1.19-1.6A66,66,0,0,1,86,147Z"/><circle class="cls-5" cx="86" cy="81" r="53"/><path class="cls-6" d="M91,33a52.78,52.78,0,0,1,34.88,13.12,53,53,0,1,0-74.76,74.76A53,53,0,0,1,91,33Z"/><path class="cls-4" d="M86,135a54,54,0,1,1,34-12,1,1,0,1,1-1.26-1.55,51.93,51.93,0,1,0-5.65,4,1,1,0,0,1,1.38.34,1,1,0,0,1-.34,1.37A53.83,53.83,0,0,1,86,135Z"/><polygon class="cls-6" points="57 116 101 96 77 72 57 116"/><path class="cls-6" d="M57,117a1,1,0,0,1-.91-1.41l20-44a1,1,0,0,1,.73-.57,1,1,0,0,1,.89.27l24,24a1,1,0,0,1,.27.89,1,1,0,0,1-.57.73l-44,20A1,1,0,0,1,57,117ZM77.31,73.73,59,114l40.26-18.3Z"/><polygon class="cls-6" points="77 72 101 96 121 52 77 72"/><path class="cls-6" d="M101,97a1,1,0,0,1-.71-.29l-24-24a1,1,0,0,1-.27-.89,1,1,0,0,1,.57-.73l44-20a1,1,0,0,1,1.32,1.32l-20,44a1,1,0,0,1-.73.57A.55.55,0,0,1,101,97ZM78.73,72.31l22,22L119,54Z"/><polygon class="cls-7" points="54 113 98 93 74 69 54 113"/><polygon class="cls-8" points="74 69 98 93 118 49 74 69"/><polygon class="cls-9" points="54 113 98 93 78 73 54 113"/><path class="cls-4" d="M54,114a1,1,0,0,1-.91-1.41l20-44a1,1,0,0,1,.73-.57,1,1,0,0,1,.89.27l24,24a1,1,0,0,1,.27.89,1,1,0,0,1-.57.73l-44,20A1,1,0,0,1,54,114ZM74.31,70.73,56,111l40.26-18.3Z"/><polygon class="cls-10" points="78 73 98 93 118 49 78 73"/><path class="cls-4" d="M98,94a1,1,0,0,1-.71-.29l-24-24a1,1,0,0,1-.27-.89,1,1,0,0,1,.57-.73l44-20a1,1,0,0,1,1.32,1.32l-20,44a1,1,0,0,1-.73.57A.55.55,0,0,1,98,94ZM75.73,69.31l22,22L116,51Z"/><path class="cls-6" d="M89,77a6.93,6.93,0,0,1,3.21.79,7,7,0,1,0-9.42,9.42A7,7,0,0,1,89,77Z"/><path class="cls-5" d="M93,81a6.93,6.93,0,0,0-.79-3.21,7,7,0,0,0-9.42,9.42A7,7,0,0,0,93,81Z"/><path class="cls-4" d="M86,89a8,8,0,1,1,8-8A8,8,0,0,1,86,89Zm0-14a6,6,0,1,0,6,6A6,6,0,0,0,86,75Z"/><path class="cls-2" d="M131,84.5h-8a3.5,3.5,0,0,1,0-7h8a3.5,3.5,0,0,1,0,7Z"/><path class="cls-2" d="M49,84.5H41a3.5,3.5,0,0,1,0-7h8a3.5,3.5,0,0,1,0,7Z"/><path class="cls-2" d="M86,47.5A3.5,3.5,0,0,1,82.5,44V36a3.5,3.5,0,0,1,7,0v8A3.5,3.5,0,0,1,86,47.5Z"/><path class="cls-2" d="M86,129.5a3.5,3.5,0,0,1-3.5-3.5v-8a3.5,3.5,0,0,1,7,0v8A3.5,3.5,0,0,1,86,129.5Z"/><circle class="cls-5" cx="163" cy="103.79" r="8"/><path class="cls-2" d="M163,112.79a1,1,0,0,1-1-1,7,7,0,0,0-7-7,1,1,0,0,1,0-2,7,7,0,0,0,7-7,1,1,0,0,1,2,0,7,7,0,0,0,7,7,1,1,0,0,1,0,2,7,7,0,0,0-7,7A1,1,0,0,1,163,112.79Zm-3.88-9a9.08,9.08,0,0,1,3.88,3.88,9.08,9.08,0,0,1,3.88-3.88A9.08,9.08,0,0,1,163,99.91,9.08,9.08,0,0,1,159.12,103.79Z"/><circle class="cls-5" cx="118" cy="153" r="8"/><path class="cls-2" d="M118,162a1,1,0,0,1-1-1,7,7,0,0,0-7-7,1,1,0,0,1,0-2,7,7,0,0,0,7-7,1,1,0,0,1,2,0,7,7,0,0,0,7,7,1,1,0,0,1,0,2,7,7,0,0,0-7,7A1,1,0,0,1,118,162Zm-3.88-9a9.08,9.08,0,0,1,3.88,3.88,9.08,9.08,0,0,1,3.88-3.88,9.08,9.08,0,0,1-3.88-3.88A9.08,9.08,0,0,1,114.12,153Z"/><circle class="cls-5" cx="150.04" cy="34" r="8"/><path class="cls-2" d="M150,43a1,1,0,0,1-1-1,7,7,0,0,0-7-7,1,1,0,0,1,0-2,7,7,0,0,0,7-7,1,1,0,0,1,2,0,7,7,0,0,0,7,7,1,1,0,0,1,0,2,7,7,0,0,0-7,7A1,1,0,0,1,150,43Zm-3.88-9A9.08,9.08,0,0,1,150,37.88,9.08,9.08,0,0,1,153.92,34,9.08,9.08,0,0,1,150,30.12,9.08,9.08,0,0,1,146.16,34Z"/><circle class="cls-5" cx="51" cy="9" r="8"/><path class="cls-2" d="M51,18a1,1,0,0,1-1-1,7,7,0,0,0-7-7,1,1,0,0,1,0-2,7,7,0,0,0,7-7,1,1,0,0,1,2,0,7,7,0,0,0,7,7,1,1,0,0,1,0,2,7,7,0,0,0-7,7A1,1,0,0,1,51,18ZM47.12,9A9.08,9.08,0,0,1,51,12.88,9.08,9.08,0,0,1,54.88,9,9.08,9.08,0,0,1,51,5.12,9.08,9.08,0,0,1,47.12,9Z"/><circle class="cls-5" cx="9" cy="62" r="8"/><path class="cls-2" d="M9,71a1,1,0,0,1-1-1,7,7,0,0,0-7-7,1,1,0,0,1,0-2,7,7,0,0,0,7-7,1,1,0,0,1,2,0,7,7,0,0,0,7,7,1,1,0,0,1,0,2,7,7,0,0,0-7,7A1,1,0,0,1,9,71ZM5.12,62A9.08,9.08,0,0,1,9,65.88,9.08,9.08,0,0,1,12.88,62,9.08,9.08,0,0,1,9,58.12,9.08,9.08,0,0,1,5.12,62Z"/><circle class="cls-5" cx="32.83" cy="145" r="8"/><path class="cls-2" d="M32.83,154a1,1,0,0,1-1-1,7,7,0,0,0-7-7,1,1,0,1,1,0-2,7,7,0,0,0,7-7,1,1,0,0,1,2,0,7,7,0,0,0,7,7,1,1,0,0,1,0,2,7,7,0,0,0-7,7A1,1,0,0,1,32.83,154ZM29,145a9.08,9.08,0,0,1,3.88,3.88A9.08,9.08,0,0,1,36.71,145a9.08,9.08,0,0,1-3.88-3.88A9.08,9.08,0,0,1,29,145Z"/></g></g></svg>