<svg xmlns="http://www.w3.org/2000/svg" viewBox="0 0 172 162"><defs><style>.cls-1{fill:#e6e6e6;}.cls-2{fill:#a09cad;}.cls-3{fill:#34234d;}.cls-4{fill:#ff5067;}.cls-5{fill:#ff6e86;}.cls-6{fill:#fff;}.cls-7{fill:#2fc8f2;}.cls-8{fill:#00b5f4;}</style></defs><title>Asset 101</title><g id="Layer_2" data-name="Layer 2"><g id="Layer_1-2" data-name="Layer 1"><path class="cls-1" d="M150.72,57.94c-4.58-12.55.49-32.62-9.81-41.23-10-8.35-29-.2-42.76-2.65S69.42-2.56,57.13,1.84c-12.69,4.54-15,25.1-23.7,35.28C25,47,4.72,52.5,2.24,66.14s14.59,25.77,19,37.92c4.58,12.55-.49,32.62,9.81,41.23,10,8.35,29,.2,42.76,2.65s28.73,16.62,41,12.22c12.69-4.54,15-25.1,23.7-35.28,8.45-9.88,28.71-15.38,31.19-29S155.17,70.09,150.72,57.94Z"/><path class="cls-2" d="M171,162H1a1,1,0,0,1,0-2H171a1,1,0,0,1,0,2Z"/><path class="cls-1" d="M26,50H146a5,5,0,0,1,5,5v78a0,0,0,0,1,0,0H21a0,0,0,0,1,0,0V55A5,5,0,0,1,26,50Z"/><path class="cls-3" d="M21,74a1,1,0,0,1-1-1V55a6,6,0,0,1,6-6h91.85a1,1,0,0,1,0,2H26a4,4,0,0,0-4,4V73A1,1,0,0,1,21,74Z"/><path class="cls-3" d="M151,134H21a1,1,0,0,1-1-1V79a1,1,0,0,1,2,0v53H150V55a4,4,0,0,0-4-4H123.85a1,1,0,0,1,0-2H146a6,6,0,0,1,6,6v78A1,1,0,0,1,151,134Z"/><path class="cls-2" d="M46,124h88a3,3,0,0,0,3-3V73l-5-6L40,119Z"/><path class="cls-2" d="M134,125H46a1,1,0,0,1-.64-.23l-6-5a1,1,0,0,1-.36-.86,1,1,0,0,1,.51-.78l92-52a1,1,0,0,1,1.26.23l5,6A1,1,0,0,1,138,73v48A4,4,0,0,1,134,125Zm-87.64-2H134a2,2,0,0,0,2-2V73.36l-4.23-5.08-90,50.88Z"/><rect class="cls-4" x="64" y="147" width="44" height="14"/><path class="cls-3" d="M108,162H64a1,1,0,0,1-1-1V147a1,1,0,0,1,1-1h44a1,1,0,0,1,1,1v14A1,1,0,0,1,108,162Zm-43-2h42V148H65Z"/><path class="cls-5" d="M21,133H151a0,0,0,0,1,0,0v9a5,5,0,0,1-5,5H26a5,5,0,0,1-5-5v-9a0,0,0,0,1,0,0Z"/><path class="cls-3" d="M146,148h-9a1,1,0,0,1,0-2h9a4,4,0,0,0,4-4v-8H22v8a4,4,0,0,0,4,4H131a1,1,0,0,1,0,2H26a6,6,0,0,1-6-6v-9a1,1,0,0,1,1-1H151a1,1,0,0,1,1,1v9A6,6,0,0,1,146,148Z"/><path class="cls-3" d="M130,162H42a1,1,0,0,1,0-2h88a1,1,0,0,1,0,2Z"/><path class="cls-6" d="M93,142H79a2,2,0,0,1,0-4H93a2,2,0,0,1,0,4Z"/><polygon class="cls-5" points="86 31 40 67 86 103 132 67 86 31"/><polygon class="cls-4" points="86 31 59.29 82.1 86 103 132 67 86 31"/><path class="cls-3" d="M86,104a1,1,0,0,1-.62-.21l-46-36a1,1,0,0,1,0-1.58l46-36a1,1,0,0,1,1.24,0l46,36a1,1,0,0,1,0,1.58l-46,36A1,1,0,0,1,86,104ZM41.62,67,86,101.73,130.38,67,86,32.27Z"/><rect class="cls-6" x="54.15" y="41.83" width="63.69" height="77.17"/><path class="cls-3" d="M117.85,120H54.15a1,1,0,0,1-1-1V41.83a1,1,0,0,1,1-1h63.7a1,1,0,0,1,1,1V119A1,1,0,0,1,117.85,120Zm-62.7-2h61.7V42.83H55.15Z"/><polygon class="cls-7" points="86 103 40 67 40 119 132 119 132 67 86 103"/><polygon class="cls-8" points="86 103 59.29 82.1 40 119 132 119 132 67 86 103"/><path class="cls-3" d="M132,120H40a1,1,0,0,1-1-1V67a1,1,0,0,1,1.62-.79L86,101.73l45.38-35.52A1,1,0,0,1,133,67v52A1,1,0,0,1,132,120Zm-91-2h90V69.05L86.62,103.79a1,1,0,0,1-1.24,0L41,69.05Z"/><polygon class="cls-8" points="86 83 122.3 111.41 40.77 118.4 86 83"/><path class="cls-3" d="M132,120H40a1,1,0,0,1-1-.67,1,1,0,0,1,.33-1.12l15.28-11.95a1,1,0,1,1,1.23,1.57L42.9,118h86.2L86,84.27l-25.49,20a1,1,0,0,1-1.23-1.58l26.1-20.43a1,1,0,0,1,1.24,0l46,36a1,1,0,0,1,.33,1.12A1,1,0,0,1,132,120Z"/><path class="cls-3" d="M109,51H82.5a1,1,0,0,1,0-2H109a1,1,0,0,1,0,2Z"/><path class="cls-3" d="M76.5,51H63a1,1,0,0,1,0-2H76.5a1,1,0,0,1,0,2Z"/><path class="cls-3" d="M109,58H94a1,1,0,0,1,0-2h15a1,1,0,0,1,0,2Z"/><path class="cls-3" d="M88,58H63a1,1,0,0,1,0-2H88a1,1,0,0,1,0,2Z"/><path class="cls-3" d="M99,65H63a1,1,0,0,1,0-2H99a1,1,0,0,1,0,2Z"/><path class="cls-3" d="M109,72H85.5a1,1,0,0,1,0-2H109a1,1,0,0,1,0,2Z"/><path class="cls-3" d="M79.5,72H63a1,1,0,0,1,0-2H79.5a1,1,0,0,1,0,2Z"/><path class="cls-3" d="M96,79H63a1,1,0,0,1,0-2H96a1,1,0,0,1,0,2Z"/><path class="cls-2" d="M164,123a1,1,0,0,1-.71-.29l-3-3a1,1,0,0,1,1.42-1.42l3,3a1,1,0,0,1,0,1.42A1,1,0,0,1,164,123Z"/><path class="cls-2" d="M171,130a1,1,0,0,1-.71-.29l-3-3a1,1,0,0,1,1.42-1.42l3,3a1,1,0,0,1,0,1.42A1,1,0,0,1,171,130Z"/><path class="cls-2" d="M161,130a1,1,0,0,1-.71-.29,1,1,0,0,1,0-1.42l3-3a1,1,0,1,1,1.42,1.42l-3,3A1,1,0,0,1,161,130Z"/><path class="cls-2" d="M168,123a1,1,0,0,1-.71-.29,1,1,0,0,1,0-1.42l3-3a1,1,0,1,1,1.42,1.42l-3,3A1,1,0,0,1,168,123Z"/><path class="cls-2" d="M128,29a1,1,0,0,1-.71-.29l-3-3a1,1,0,0,1,1.42-1.42l3,3a1,1,0,0,1,0,1.42A1,1,0,0,1,128,29Z"/><path class="cls-2" d="M135,36a1,1,0,0,1-.71-.29l-3-3a1,1,0,0,1,1.42-1.42l3,3a1,1,0,0,1,0,1.42A1,1,0,0,1,135,36Z"/><path class="cls-2" d="M125,36a1,1,0,0,1-.71-.29,1,1,0,0,1,0-1.42l3-3a1,1,0,0,1,1.42,1.42l-3,3A1,1,0,0,1,125,36Z"/><path class="cls-2" d="M132,29a1,1,0,0,1-.71-.29,1,1,0,0,1,0-1.42l3-3a1,1,0,1,1,1.42,1.42l-3,3A1,1,0,0,1,132,29Z"/><path class="cls-2" d="M103,5a1,1,0,0,1-.71-.29l-3-3A1,1,0,1,1,100.71.29l3,3a1,1,0,0,1,0,1.42A1,1,0,0,1,103,5Z"/><path class="cls-2" d="M110,12a1,1,0,0,1-.71-.29l-3-3a1,1,0,1,1,1.42-1.42l3,3a1,1,0,0,1,0,1.42A1,1,0,0,1,110,12Z"/><path class="cls-2" d="M100,12a1,1,0,0,1-.71-.29,1,1,0,0,1,0-1.42l3-3a1,1,0,1,1,1.42,1.42l-3,3A1,1,0,0,1,100,12Z"/><path class="cls-2" d="M107,5a1,1,0,0,1-.71-.29,1,1,0,0,1,0-1.42l3-3a1,1,0,0,1,1.42,1.42l-3,3A1,1,0,0,1,107,5Z"/><path class="cls-2" d="M57,16a1,1,0,0,1-.71-.29l-3-3a1,1,0,0,1,1.42-1.42l3,3a1,1,0,0,1,0,1.42A1,1,0,0,1,57,16Z"/><path class="cls-2" d="M64,23a1,1,0,0,1-.71-.29l-3-3a1,1,0,0,1,1.42-1.42l3,3a1,1,0,0,1,0,1.42A1,1,0,0,1,64,23Z"/><path class="cls-2" d="M54,23a1,1,0,0,1-.71-.29,1,1,0,0,1,0-1.42l3-3a1,1,0,0,1,1.42,1.42l-3,3A1,1,0,0,1,54,23Z"/><path class="cls-2" d="M61,16a1,1,0,0,1-.71-.29,1,1,0,0,1,0-1.42l3-3a1,1,0,1,1,1.42,1.42l-3,3A1,1,0,0,1,61,16Z"/><path class="cls-2" d="M4,84a1,1,0,0,1-.71-.29l-3-3a1,1,0,0,1,1.42-1.42l3,3a1,1,0,0,1,0,1.42A1,1,0,0,1,4,84Z"/><path class="cls-2" d="M11,91a1,1,0,0,1-.71-.29l-3-3a1,1,0,1,1,1.42-1.42l3,3a1,1,0,0,1,0,1.42A1,1,0,0,1,11,91Z"/><path class="cls-2" d="M1,91a1,1,0,0,1-.71-.29,1,1,0,0,1,0-1.42l3-3a1,1,0,0,1,1.42,1.42l-3,3A1,1,0,0,1,1,91Z"/><path class="cls-2" d="M8,84a1,1,0,0,1-.71-.29,1,1,0,0,1,0-1.42l3-3a1,1,0,1,1,1.42,1.42l-3,3A1,1,0,0,1,8,84Z"/></g></g></svg>