<svg xmlns="http://www.w3.org/2000/svg" viewBox="0 0 172 162"><defs><style>.cls-1{fill:#e6e6e6;}.cls-2{fill:#2fc8f2;}.cls-3{fill:#00b5f4;}.cls-4{fill:#a09cad;}.cls-5{fill:#fff;}.cls-6{fill:#ff6e86;}.cls-7{fill:#ff5067;}.cls-8{fill:#34234d;}</style></defs><title>Asset 101</title><g id="Layer_2" data-name="Layer 2"><g id="Layer_1-2" data-name="Layer 1"><path class="cls-1" d="M91,1c13.22.82,20.64,19.18,30.93,26,10.62,7,30.4,6.94,36.08,18.31,5.51,11-6.32,26.54-7.15,39.71s9,30,2.12,40.28c-7.06,10.58-26.67,8-38.09,13.69C103.86,144.51,94.2,161.8,81,161S60.33,141.79,50,135c-10.62-7-30.4-6.94-36.08-18.31-5.51-11,6.32-26.54,7.15-39.71s-9-30-2.12-40.28c7.06-10.58,26.67-8,38.09-13.69C68.14,17.49,77.8.2,91,1Z"/><path class="cls-2" d="M27,95H47a0,0,0,0,1,0,0v42a4,4,0,0,1-4,4H29a2,2,0,0,1-2-2V95A0,0,0,0,1,27,95Z"/><path class="cls-3" d="M33,95H47a0,0,0,0,1,0,0v42a4,4,0,0,1-4,4H35a2,2,0,0,1-2-2V95A0,0,0,0,1,33,95Z"/><path class="cls-4" d="M47,109h3a5,5,0,0,1,5,5v6a5,5,0,0,1-5,5H47a0,0,0,0,1,0,0V109A0,0,0,0,1,47,109Z"/><path class="cls-1" d="M117,123C85.73,95.84,47,95,47,95V49s38.73-.84,70-28Z"/><path class="cls-5" d="M117,108C93.18,94.34,47,94,47,94V49s38.73-.84,70-28Z"/><path class="cls-6" d="M11,49H47a0,0,0,0,1,0,0V95a0,0,0,0,1,0,0H11A10,10,0,0,1,1,85V59A10,10,0,0,1,11,49Z"/><path class="cls-7" d="M11,55H47a0,0,0,0,1,0,0V95a0,0,0,0,1,0,0H11A10,10,0,0,1,1,85V65A10,10,0,0,1,11,55Z"/><path class="cls-3" d="M117,52V92C133,81,133,63.05,117,52Z"/><path class="cls-8" d="M43,142H29a3,3,0,0,1-3-3V95a1,1,0,0,1,1-1H47a1,1,0,0,1,0,2H28v43a1,1,0,0,0,1,1H43a3,3,0,0,0,3-3V101a1,1,0,0,1,2,0v36A5,5,0,0,1,43,142Z"/><rect class="cls-1" x="104" y="30.01" width="2" height="83.98"/><path class="cls-8" d="M117,124a1,1,0,0,1-.66-.25C85.7,97.14,47.36,96,47,96a1,1,0,0,1-1-1V49a1,1,0,0,1,1-1,94.12,94.12,0,0,0,13.33-1.6,1,1,0,0,1,.36,2A102.31,102.31,0,0,1,48,50V94.05c6.14.36,39.89,3.39,68,26.79V52a1,1,0,0,1,2,0v71a1,1,0,0,1-.58.91A1.06,1.06,0,0,1,117,124Z"/><path class="cls-8" d="M66.08,47.22a1,1,0,0,1-.23-2c13.47-3.1,33.16-10,50.49-25a1,1,0,0,1,1.08-.16A1,1,0,0,1,118,21V46a1,1,0,0,1-2,0V23.16c-17.23,14.35-36.44,21-49.7,24A.86.86,0,0,1,66.08,47.22Z"/><path class="cls-8" d="M47,96H11A11,11,0,0,1,0,85V59A11,11,0,0,1,11,48H47a1,1,0,0,1,1,1V95A1,1,0,0,1,47,96ZM11,50a9,9,0,0,0-9,9V85a9,9,0,0,0,9,9H46V50Z"/><path class="cls-5" d="M24,86.5A2.5,2.5,0,0,1,21.5,84V60a2.5,2.5,0,0,1,5,0V84A2.5,2.5,0,0,1,24,86.5Z"/><path class="cls-5" d="M36,86.5A2.5,2.5,0,0,1,33.5,84V60a2.5,2.5,0,0,1,5,0V84A2.5,2.5,0,0,1,36,86.5Z"/><path class="cls-5" d="M12,86.5A2.5,2.5,0,0,1,9.5,84V60a2.5,2.5,0,0,1,5,0V84A2.5,2.5,0,0,1,12,86.5Z"/><path class="cls-8" d="M117,93a1,1,0,0,1-.46-.11A1,1,0,0,1,116,92V52a1,1,0,0,1,.54-.89,1,1,0,0,1,1,.07C125.58,56.72,130,64.11,130,72s-4.42,15.28-12.43,20.82A1,1,0,0,1,117,93Zm1-39V90c6.47-5,10-11.34,10-18S124.47,59,118,54Z"/><path class="cls-4" d="M129,100a1,1,0,0,1-.78-.38,1,1,0,0,1,.16-1.4C137.16,91.19,142,81.88,142,72s-4.84-19.19-13.62-26.22a1,1,0,0,1,1.24-1.56C138.89,51.63,144,61.5,144,72s-5.11,20.37-14.38,27.78A1,1,0,0,1,129,100Z"/><path class="cls-4" d="M137,110.5a1,1,0,0,1-.61-1.79C149,98.88,156,85.84,156,72s-7-26.88-19.61-36.71a1,1,0,0,1,1.22-1.58C150.76,43.93,158,57.53,158,72s-7.24,28.07-20.39,38.29A1,1,0,0,1,137,110.5Z"/><path class="cls-4" d="M145,121a1,1,0,0,1-.79-.39,1,1,0,0,1,.18-1.4C160.91,106.57,170,89.8,170,72s-9.09-34.57-25.61-47.21a1,1,0,0,1,1.22-1.58C162.63,36.23,172,53.56,172,72s-9.37,35.77-26.39,48.79A1,1,0,0,1,145,121Z"/><path class="cls-5" d="M75.63,12.63a4.15,4.15,0,0,1,3.61-6.2A4.13,4.13,0,0,1,82,7.51a7.48,7.48,0,0,1,14.9,1,7,7,0,0,1-.14,1.38,6.16,6.16,0,0,1,1.3-.14,6.31,6.31,0,0,1,0,12.61H76.56a4.89,4.89,0,0,1-.93-9.7Z"/><path class="cls-4" d="M98.09,23.33H76.56A5.9,5.9,0,0,1,74.29,12a5.14,5.14,0,0,1,4.95-6.56,5,5,0,0,1,2.13.47A8.48,8.48,0,0,1,97.93,8.48a1.93,1.93,0,0,1,0,.24,7.31,7.31,0,1,1,.17,14.61ZM79.24,7.43a3.16,3.16,0,0,0-3.15,3.16,3.09,3.09,0,0,0,.41,1.54,1,1,0,0,1,0,.92,1,1,0,0,1-.72.56,3.89,3.89,0,0,0,.74,7.72H98.09A5.3,5.3,0,1,0,97,10.84a1,1,0,0,1-1.19-1.16,6.34,6.34,0,0,0,.12-1.2A6.48,6.48,0,0,0,83,7.64a1,1,0,0,1-.64.81,1,1,0,0,1-1-.2A3.15,3.15,0,0,0,79.24,7.43Z"/><path class="cls-5" d="M126,151.9a3.89,3.89,0,0,1,6-4.79,7,7,0,0,1,14,.91,6.88,6.88,0,0,1-.13,1.29,5.49,5.49,0,0,1,1.22-.13,5.91,5.91,0,0,1,0,11.82H126.9a4.59,4.59,0,0,1-.87-9.1Z"/><path class="cls-4" d="M147.09,162H126.9a5.59,5.59,0,0,1-2.21-10.73,5.06,5.06,0,0,1-.17-1.28,4.91,4.91,0,0,1,4.9-4.9,5,5,0,0,1,2,.41A8,8,0,0,1,147,148v.16a6.91,6.91,0,1,1,.09,13.82Zm-17.67-14.91a2.9,2.9,0,0,0-2.9,2.9,2.85,2.85,0,0,0,.38,1.42,1,1,0,0,1,0,.91,1,1,0,0,1-.72.56,3.59,3.59,0,0,0,.68,7.12h20.19a4.91,4.91,0,1,0-1-9.71,1,1,0,0,1-1.19-1.17A6,6,0,1,0,133,147.24a1,1,0,0,1-1.66.61A2.89,2.89,0,0,0,129.42,147.09Z"/><path class="cls-5" d="M87.62,133.23a3.65,3.65,0,0,0-5.63-4.5,6.58,6.58,0,0,0-13.11.86A7,7,0,0,0,69,130.8a5.24,5.24,0,0,0-1.14-.13,5.55,5.55,0,1,0,0,11.1h19a4.31,4.31,0,0,0,.81-8.54Z"/><path class="cls-4" d="M86.81,142.77h-19a6.55,6.55,0,1,1,0-13.1h0v-.08a7.58,7.58,0,0,1,14.76-2.44A4.65,4.65,0,0,1,89,132.61a5.3,5.3,0,0,1-2.14,10.16Zm-19-11.1a4.55,4.55,0,1,0,0,9.1h19a3.3,3.3,0,0,0,.63-6.55,1,1,0,0,1-.69-1.48,2.61,2.61,0,0,0,.35-1.3,2.65,2.65,0,0,0-4.44-2,1,1,0,0,1-1,.2,1,1,0,0,1-.65-.81,5.58,5.58,0,0,0-11.12.73,5.18,5.18,0,0,0,.1,1,1,1,0,0,1-1.19,1.17A4.38,4.38,0,0,0,67.85,131.67Z"/><path class="cls-5" d="M44.25,29.48A3.65,3.65,0,0,0,41.08,24a3.67,3.67,0,0,0-2.45.95,6.57,6.57,0,0,0-13.08.85,6,6,0,0,0,.12,1.21,5.38,5.38,0,0,0-1.14-.12,5.54,5.54,0,1,0,0,11.07h18.9a4.3,4.3,0,0,0,.82-8.52Z"/><path class="cls-4" d="M43.43,39H24.53a6.54,6.54,0,1,1,0-13.07h0v-.09a7.56,7.56,0,0,1,14.73-2.43,4.6,4.6,0,0,1,1.8-.37,4.65,4.65,0,0,1,4.64,4.65,4.5,4.5,0,0,1-.15,1.16A5.3,5.3,0,0,1,43.43,39ZM24.53,27.93a4.54,4.54,0,1,0,0,9.07h18.9a3.3,3.3,0,0,0,.63-6.54A1,1,0,0,1,43.38,29a2.71,2.71,0,0,0,.34-1.3,2.64,2.64,0,0,0-4.42-2,1,1,0,0,1-1,.2,1,1,0,0,1-.64-.81,5.57,5.57,0,0,0-11.09.72,5.28,5.28,0,0,0,.1,1,1,1,0,0,1-.29.9,1,1,0,0,1-.9.26A4.33,4.33,0,0,0,24.53,27.93Z"/></g></g></svg>